<svg id="Livello_1" data-name="Livello 1" xmlns="http://www.w3.org/2000/svg" viewBox="0 0 418.21 120.49"><defs><style>.cls-1{fill:#fff;}</style></defs><path class="cls-1" d="M368.06,208.67h15.69c8.16,0,13.45,5.69,13.45,13.11S391.91,235,383.75,235h-7.36v13h-8.33Zm14.06,19.07c3.71,0,6.19-2.14,6.19-6s-2.48-5.85-6.19-5.85h-5.73v11.81Z" transform="translate(-225.65 -190.9)"/><path class="cls-1" d="M399.56,234.21c0-8.21,6.07-14.57,15-14.57s15,6.36,15,14.57-6.13,14.68-15,14.68S399.56,242.48,399.56,234.21Zm21.82,0c0-4.44-3-7.2-6.86-7.2s-6.81,2.76-6.81,7.2,3,7.25,6.81,7.25S421.38,238.76,421.38,234.21Z" transform="translate(-225.65 -190.9)"/><path class="cls-1" d="M464.79,240V227.07h-4.66v-6.53h4.94v-7.48l7.6-2.81v10.29h6.13v6.53h-6.13v11c0,2.47,1.23,3.71,3.88,3.71a8.59,8.59,0,0,0,2.25-.34v6.81a19.36,19.36,0,0,1-4.73.62C469.07,248.89,464.79,246.36,464.79,240Z" transform="translate(-225.65 -190.9)"/><path class="cls-1" d="M482.17,234.1c0-8.67,6.24-14.46,14.12-14.46,8.71,0,13.66,6.08,13.66,14.57,0,.67-.05,1.85-.11,2.31H490.38c.17,3.76,3.66,5.84,7.09,5.84A18.05,18.05,0,0,0,507.93,239v6.8a19.31,19.31,0,0,1-11.3,3.1C488.69,248.89,482.17,243.6,482.17,234.1ZM502,231.23c-.16-2.59-2-5.06-5.73-5.06a5.59,5.59,0,0,0-5.74,5.06Z" transform="translate(-225.65 -190.9)"/><path class="cls-1" d="M521.37,234.21c0,4.83,3.37,7.2,7.25,7.2a13.4,13.4,0,0,0,8-2.59V247a19.22,19.22,0,0,1-8.44,1.92c-8.66,0-15-6-15-14.68s6.36-14.57,15-14.57a19.37,19.37,0,0,1,8.44,1.91v8.1a13.8,13.8,0,0,0-8-2.58C524.74,227.07,521.37,229.54,521.37,234.21Z" transform="translate(-225.65 -190.9)"/><path class="cls-1" d="M542.35,220.54h7.76v2.2a10.44,10.44,0,0,1,7.7-3.1c5.18,0,10.07,3.55,10.07,10.07V248H560V231.68a4.49,4.49,0,0,0-4.61-4.84,6.4,6.4,0,0,0-5.17,2.87V248h-7.87Z" transform="translate(-225.65 -190.9)"/><path class="cls-1" d="M594.59,234.21c0,4.83,3.38,7.2,7.26,7.2a13.4,13.4,0,0,0,8-2.59V247a19.22,19.22,0,0,1-8.44,1.92c-8.66,0-15-6-15-14.68s6.35-14.57,15-14.57a19.37,19.37,0,0,1,8.44,1.91v8.1a13.8,13.8,0,0,0-8-2.58C598,227.07,594.59,229.54,594.59,234.21Z" transform="translate(-225.65 -190.9)"/><path class="cls-1" d="M613.88,234.21c0-8.21,6.08-14.57,15-14.57s15,6.36,15,14.57-6.13,14.68-15,14.68S613.88,242.48,613.88,234.21Zm21.82,0c0-4.44-3-7.2-6.86-7.2s-6.8,2.76-6.8,7.2,3,7.25,6.8,7.25S635.7,238.76,635.7,234.21Z" transform="translate(-225.65 -190.9)"/><path class="cls-1" d="M439.77,267.83H427.23v-7.7h33.63v7.7l-12.6.06v31.66l-8.49-.05Z" transform="translate(-225.65 -190.9)"/><path class="cls-1" d="M456.58,285.66c0-8.21,6.08-14.56,15-14.56s15,6.35,15,14.56-6.13,14.68-15,14.68S456.58,293.93,456.58,285.66Zm21.82,0c0-4.44-3-7.2-6.86-7.2s-6.8,2.76-6.8,7.2,3,7.26,6.8,7.26S478.4,290.22,478.4,285.66Z" transform="translate(-225.65 -190.9)"/><path class="cls-1" d="M491.51,272h7.76v4a7.71,7.71,0,0,1,7.36-4.89,20.22,20.22,0,0,1,2,.16v8a11.32,11.32,0,0,0-2.87-.28,6.61,6.61,0,0,0-6.41,4.61V299.5h-7.87Z" transform="translate(-225.65 -190.9)"/><path class="cls-1" d="M527.78,272h7.76v2.2a10.5,10.5,0,0,1,7.71-3.09c5.17,0,10.06,3.54,10.06,10.06V299.5h-7.87V283.13a4.49,4.49,0,0,0-4.61-4.84,6.42,6.42,0,0,0-5.18,2.87V299.5h-7.87Z" transform="translate(-225.65 -190.9)"/><path class="cls-1" d="M557.7,285.66c0-8.21,6.07-14.56,15-14.56s15,6.35,15,14.56-6.13,14.68-15,14.68S557.7,293.93,557.7,285.66Zm21.82,0c0-4.44-3-7.2-6.86-7.2s-6.81,2.76-6.81,7.2,3,7.26,6.81,7.26S579.52,290.22,579.52,285.66Z" transform="translate(-225.65 -190.9)"/><polygon class="cls-1" points="208.66 19.34 208.66 57.14 216.53 57.14 216.53 16.37 216.52 16.37 208.66 19.34"/><path class="cls-1" d="M448.43,248h7.87v-27.5h-7.87Zm3.93-33a4.83,4.83,0,1,0-4.83-4.83A4.84,4.84,0,0,0,452.36,215.08Z" transform="translate(-225.65 -190.9)"/><path class="cls-1" d="M573.76,248h7.87v-27.5h-7.87Zm3.93-33a4.83,4.83,0,1,0-4.83-4.83A4.84,4.84,0,0,0,577.69,215.08Z" transform="translate(-225.65 -190.9)"/><path class="cls-1" d="M400.57,299.5h7.87V272h-7.87Zm3.94-33a4.84,4.84,0,1,0-4.84-4.84A4.84,4.84,0,0,0,404.51,266.54Z" transform="translate(-225.65 -190.9)"/><path class="cls-1" d="M513.38,299.5h7.88V272h-7.88Zm3.94-33a4.84,4.84,0,1,0-4.84-4.84A4.84,4.84,0,0,0,517.32,266.54Z" transform="translate(-225.65 -190.9)"/><path class="cls-1" d="M394.28,258.38l-7.86,3v12.35a12.1,12.1,0,0,0-8.17-3.07c-7.63,0-12.84,6.36-12.84,14.57s5.21,14.68,12.84,14.68a12,12,0,0,0,8.17-3.1v2.37h7.87V258.38ZM380,292.46c-3.52,0-6.37-2.7-6.37-7.25s2.85-7.2,6.37-7.2,6.19,2.57,6.39,6.72v1C386.22,289.94,383.48,292.46,380,292.46Z" transform="translate(-225.65 -190.9)"/><path class="cls-1" d="M325.19,257.14l-1,.24v.84l1-.19Zm.58-.31-.38.1V258l.38-.07Zm1.34-.16-1.06.25v.94l1.06-.21Zm.74-.36-.53.13v1.17l.53-.1Zm3.94-.77-1.41.33V257l1.41-.27Zm-2.49.59-1.16.28v1l1.16-.23Zm.71-.36-.52.13v1.29l.52-.1Zm-44.46-7.6a.31.31,0,0,0-.31.21h.62A.32.32,0,0,0,285.55,248.17Zm-29.78-18-1.41-1.43-1.42,1.43h.17l1.19-1.07,1.19,1.07Zm-6.93-.65-.9.65h1.8Zm18.33,13-.34.8a.12.12,0,0,0,0,.1s.09,0,.2,0a.72.72,0,0,1,.3.11.55.55,0,0,0,.34.1h.05a.63.63,0,0,0,.31-.1.55.55,0,0,1,.38-.11s0,0,0,0a.12.12,0,0,0,0-.1l-.34-.82v-.33A.17.17,0,0,0,268,242a2.8,2.8,0,0,1-.29,0c-.18,0-.37,0-.45.05a.2.2,0,0,0-.05.14Zm.12-.41H268v1h-.71ZM253.4,230.19h1.79l-.89-.65Zm78.39,25.14-1.41.35h0l1.41-.33ZM247.37,233a.28.28,0,0,0,0,.21c.06.08.23.07.37.07h0a1.52,1.52,0,0,1,.49.19,1,1,0,0,0,.63.19,1.08,1.08,0,0,0,.65-.19,1.2,1.2,0,0,1,.48-.18h0a.25.25,0,0,0,.25-.07.22.22,0,0,0,0-.22l-.59-1.42v-.17a1.07,1.07,0,0,0-.13-.71.24.24,0,0,0-.19-.08h-1.11a.26.26,0,0,0-.19.08c-.14.14-.13.47-.12.71v.19Zm.9-2.06h1.15v1.57h-1.15Zm64.54,18.83H307.2l-.51.49.45-.39h5.53Zm-41.27-8.09-.75-.75-.74.75h0l.69-.62.69.62Zm-1.6,1.75s.09,0,.21,0a.63.63,0,0,1,.29.11.6.6,0,0,0,.35.1.61.61,0,0,0,.36-.1.63.63,0,0,1,.28-.11h0a.1.1,0,0,0,.11,0,.09.09,0,0,0,0-.1l-.34-.82v-.09c0-.13,0-.33-.06-.4a.14.14,0,0,0-.09,0h0a2.8,2.8,0,0,1-.29,0c-.18,0-.37,0-.45.05a.16.16,0,0,0,0,.14v.35l-.34.8A.12.12,0,0,0,269.94,243.45Zm.46-1.31h.71v1h-.71Zm-.07-.44h.86l-.43-.31Zm2.11,3.09h0l1.08,1.11-1.1-1.23c-.27,0-3.19,0-5.14,0h-.87Zm-4.8-3.4-.43.31h.86Zm-14.81-8.16c.06.08.23.07.37.07h0a1.52,1.52,0,0,1,.49.19,1,1,0,0,0,.63.19,1.11,1.11,0,0,0,.65-.19,1,1,0,0,1,.64-.18.16.16,0,0,0,.1-.07.23.23,0,0,0,0-.21l-.59-1.43a1,1,0,0,1,0-.17c0-.24,0-.57-.13-.71a.24.24,0,0,0-.19-.08h-1.11a.26.26,0,0,0-.19.08c-.14.14-.13.47-.13.71a1,1,0,0,1,0,.17v0l-.6,1.4C252.8,233.12,252.8,233.19,252.83,233.23Zm.89-2.27h1.15v1.57h-1.15Zm80.74,23.7L333,255v0l1.42-.36Zm-39-3.8-.07.11,10.3-.11Zm39.94,3.55-.76.19v1.59l.76-.15Zm-2.78.7-.65.16v1.44l.65-.13Zm1.8-.24-1.42.36v1.28l1.42-.28Zm-55-37.17a5.17,5.17,0,0,0-.24,2h.18a2.8,2.8,0,0,0,0-.29c0-.2,0-.38,0-.55a3.34,3.34,0,0,1,1.55-2.7l0,0a4.51,4.51,0,0,0,.63-.54,2.55,2.55,0,0,0,.72-1.69,6.63,6.63,0,0,1-2,1.58l0,0v.14a5.35,5.35,0,0,0,1.6-1.09C281.44,215.89,280,216.35,279.49,217.7Zm7-8.71a2.45,2.45,0,0,0,1.33-1.3,5.51,5.51,0,0,1-1.45.92l-.32.15a2.9,2.9,0,0,0-1.22,1.17,3.28,3.28,0,0,1,.72-.51C285.75,209.3,286.05,209.16,286.46,209Zm-4,8.06a6.07,6.07,0,0,0,2.16-2.36,5.82,5.82,0,0,0,.41-1.07,7.69,7.69,0,0,1,1.46-2.58,4.6,4.6,0,0,0-2.5,2.83A9.33,9.33,0,0,1,282.49,217.05Zm12.58,34.14h-1.42l0,.09H295Zm-16.3-30.6a2,2,0,0,1-1,.48,15.5,15.5,0,0,1-5.43-.1,20.45,20.45,0,0,0,17.2,9.84,20.13,20.13,0,0,0,7-1.24l.37-.15v0c.35-.18,1-.32,1.23-.63a9.94,9.94,0,0,0,0-2,6.2,6.2,0,0,0-1.31-4,3.63,3.63,0,0,0-1.39-1,1.41,1.41,0,0,0-1.09-.65.68.68,0,0,0-.2,0,1.63,1.63,0,0,0-1.16-.28,2.48,2.48,0,0,0-1.86-.56c-.63.05-.82-1.15-1-2.08a3.62,3.62,0,0,1,.28-1.72,8.35,8.35,0,0,1,1,.3c1,.22,1.94.46,2.8-.08.07-.06.23-.09.15-.18l0,0c.59-.66.25-1.49.3-2.17a1.08,1.08,0,0,0,.33-1.17c.24-.76,1.15-.68,1.5-1.64.21-.12-.74-1.23-.93-1.57a2.11,2.11,0,0,1-.28-1.23s0-.32,0-.32a2.68,2.68,0,0,1,.12-.47,3,3,0,0,0,1.71-.74,4.76,4.76,0,0,0,1.29-1.63,8,8,0,0,0-1.47-1.26l.61-.55.08-.12.58-.57-.35-.13a45.91,45.91,0,0,1-6.51-4,7.59,7.59,0,0,0-4.8-.84,6.59,6.59,0,0,1-.11-2.22,4.6,4.6,0,0,1,2.61-3.21l-.5-1.87c-6.45-.78-11.33,2.41-13.1,6.75-1.66,4.09-1,8.76,1.71,11.36l.14.14c.32-.19.76-.55,1.05-.76l.12-.06v0c0-.27,0-.53-.05-.79,0-2.26-.11-5.53,2.23-5.88-2.21,2.75-2.47,6.13-.22,8.89a4.24,4.24,0,0,1,.82,1.83,4.32,4.32,0,0,1-1.2,2.8l.12.13h0a3.4,3.4,0,0,0,.21-5.1c-2.05-2.9-1.85-5.53.66-8.76a2.52,2.52,0,0,0-1.82.71c-.84.89-1.13,2.71-1,6.08v0l-.65.48,0,0c-.22-.27-.5-.65-.76-1A11.14,11.14,0,0,1,276,206v0a5.76,5.76,0,0,1,1.63-2.91,6.78,6.78,0,0,0-2.16,2l-.18.29.06-.31a4,4,0,0,1,.3-.75,6.25,6.25,0,0,1,1.64-1.9,7.82,7.82,0,0,0-2.05,2.05l-.1.14v-.17a4.19,4.19,0,0,0-.09-.57c-.11-.51-.23-1.1.19-1.48a9.12,9.12,0,0,1,2.41-1.67,14.6,14.6,0,0,0-2.61,1.25l-.11.07,0-.14a3.79,3.79,0,0,0,0-.62c0-.6,0-1.27.71-1.34a16,16,0,0,1,3.44-.67H279a12.78,12.78,0,0,0-3.08.3c-.22.1-.37.1-.46,0s0-.62.29-1.23a4.2,4.2,0,0,0,.22-.58l0,0H276c.61,0,1.35.18,2,.31-.52-.18-1.14-.4-1.85-.67l-.07,0,.05-.06a3,3,0,0,0,.28-.52c.18-.4.37-.82.64-.84a.43.43,0,0,1,.36.22,10.85,10.85,0,0,0,2.61,1.68,8.65,8.65,0,0,1-2.63-2.46l0,0,0,0a3,3,0,0,0,.3-.35c.19-.26.38-.52.59-.52h0c.11,0,.22.1.31.29a12.91,12.91,0,0,0,3.3,2.66,14.88,14.88,0,0,1-3-3l-.22-.35,0-.05.06,0a1.7,1.7,0,0,0,.35-.3c.26-.23.5-.46.69-.4s.16.14.19.32a9.24,9.24,0,0,0,2.81,3.45,6.68,6.68,0,0,1-2.05-4c0-.13,0-.27,0-.39v0l0,0a12.51,12.51,0,0,1,5.89-1.37h.11v.12c-.43,0-.85.06-1.27.12a1.67,1.67,0,0,0-.94,1.81l-.12,0a3.15,3.15,0,0,1,0-1.63,12.38,12.38,0,0,0-2.16.69c-.54,1.76.37,3.82,2.28,5.19a4.38,4.38,0,0,1-.63-2.85l.06-.21.05.22a10.83,10.83,0,0,0,1.15,2.69c-.38-1.53-.28-4.06,3.36-6l.07,0,0,.07a8.3,8.3,0,0,1,.36,1.57h0c-3,1.84-2.68,4-2.45,5.46,0,.11,0,.21.05.31v.06h-.06a5.84,5.84,0,0,0-3.29,1.36,9.13,9.13,0,0,1,3.49-.92h.1l0,.12h0c-2.76.58-3.91,1.59-4.28,2a2.51,2.51,0,0,0,0,1.93,5.82,5.82,0,0,1,4.7-2.91l.36,0-.33.14a5.33,5.33,0,0,0-1.3.77c-.3.25-.42.49-.37.7.14.59,1.59.95,2.55,1.19l.72.19c.86.26,1.25.38,1.28.58s0,.15-.11.22-.33.14-.62.25c-2,.74-7.25,2.69-7,7.47a10.46,10.46,0,0,1,1.15-2.3,9.71,9.71,0,0,1,5.06-3.52,15.62,15.62,0,0,0-3.75,1.65l-.07-.1c2.73-2.06,4.08-2.73,6.72-2.65a7.79,7.79,0,0,1,1.51.31l.15,0-.14.07a1.17,1.17,0,0,0-.26.18l0,0h0a2.79,2.79,0,0,0-.83,0,4.55,4.55,0,0,0-1.37.53c-.78.48-1.15.91-2.2,2.57a3.14,3.14,0,0,1-1.86,1.36,3.89,3.89,0,0,0,1.76-.58,2.51,2.51,0,0,0,.85-.94,3.21,3.21,0,0,1,.76-.91,2.65,2.65,0,0,1,1.21-.42h.07l0,0,.06.08h-.13a2.27,2.27,0,0,0-.83.54,2.61,2.61,0,0,0-.52,1.81,2.65,2.65,0,0,0,.11.88,2,2,0,0,1-.31,1.44,2.24,2.24,0,0,0,.05,2.36,5.11,5.11,0,0,0,4,2.37h.05a2.06,2.06,0,0,0,.61-.11l.35-.11-.29.22c-.6.45-1,.49-2.48.24a2.72,2.72,0,0,1-.68-.19,2,2,0,0,0-.79-.2,3.26,3.26,0,0,0-.37,2l-.12.57-.07-.17a7.72,7.72,0,0,1-.58-2.34s0-.27,0-.39a2.89,2.89,0,0,1-.58-.31,2.41,2.41,0,0,1-1.06-1.41,5.22,5.22,0,0,1-.1-1.16h0l-.32.52,0-.18a5.29,5.29,0,0,1,.25-2,4.53,4.53,0,0,0-.73,2.16,4,4,0,0,1-.22,1.39,6.31,6.31,0,0,0,.33,1.74,4.8,4.8,0,0,0,1.36,2.05l.2.17-.25-.07a4,4,0,0,1-2.41-1.42,5.33,5.33,0,0,1-1.5,1.77,8.71,8.71,0,0,0-1,.94c-1.15,1.23-.44,3.63.27,4.57l.08.12-.14,0c-2-.29-2.93-3.44-3-4.82a2.13,2.13,0,0,1-1.37,1.07,6.22,6.22,0,0,1-1.27.24l0-.12.29-.09s1.3-.4,1.35-1.45l-.2.09A1.25,1.25,0,0,1,278.77,220.59Zm-2.85-13.91a3.47,3.47,0,0,1,.06-.45l0-.24.07.23a9.62,9.62,0,0,0,1.45,2.68l-.09.08a8.93,8.93,0,0,1-1.52-2.27h0ZM293,202.09a9.62,9.62,0,0,0-3.45-1.89l-1.43-.27.21-.07a3.85,3.85,0,0,1,1.28-.22h.05a3.59,3.59,0,0,1,2.13.71c3.39,2.5,5.13,3,5.72,3.12a.21.21,0,0,1,.15.14.19.19,0,0,1-.06.2l-.76.71a9.09,9.09,0,0,1,1.5,1.24l0,0,0,0a4,4,0,0,1-2.88,2.13,2,2,0,0,0-.2.75v.22l-.1-.2a1.36,1.36,0,0,1-.16-.65s0-.11.07-.36a1.3,1.3,0,0,0,.06-.23,1.45,1.45,0,0,0-.3-1.24l-.13-.14.19,0a2.78,2.78,0,0,1,.71.38,1.16,1.16,0,0,0-.37-.6l-.14-.13.19,0a2.82,2.82,0,0,0,.61,0c.26,0,.51,0,.72,0s.51,0,.53-.07,0-.06-.21-.27h0l-.48-.45c-.61-.57-1.82-1.7-2.11-1.95l-.06,0Zm-1.86,4.29-.36-.15.39,0a2.06,2.06,0,0,0,1.93-.65,3.17,3.17,0,0,1,.34-.3h0a1.18,1.18,0,0,1,.77.24,2.51,2.51,0,0,0,.42.19l.22.07-.22.05a7.8,7.8,0,0,0-1.05.32,4.89,4.89,0,0,1-1.66.32A2.22,2.22,0,0,1,291.12,206.38Zm1.64,3.46a.09.09,0,0,1,0-.1.72.72,0,0,0,0-.19.53.53,0,0,1-.4.26.35.35,0,0,1-.37-.13.38.38,0,0,1-.07-.22,1.08,1.08,0,0,1-1.12-.32s-.08-.09-.05-.14.08,0,.12,0l.06,0a1.23,1.23,0,0,0,.76-.15,2,2,0,0,1,.68-.19,7.24,7.24,0,0,0-1.1.1l-.17,0-.35,0,.49-.26c1-.52,1.11-.57,2.68-.1l.06,0-.15.37.18-.15.07,0,0,.08a8.26,8.26,0,0,0,1.74,3l0,0,0,0a1.69,1.69,0,0,1-.95.94l-.06,0,0-.05a.7.7,0,0,0-.94-.41h0l0,0a.71.71,0,0,1-.27-.59c0-.17.19-.31.47-.43.12-.06.12-.13.12-.15s-.08-.26-.66-.6c-.39-.18-.66-.37-.67-.69A.08.08,0,0,1,292.76,209.84Zm1.76,4.59-.1.06a.47.47,0,0,1-.31.12H294l-.89-.18.24-.07s.85-.22,1.15,0l.1.06Zm.1-.37h0a3.72,3.72,0,0,0-1.24.11h0a.62.62,0,0,1-.2-.23l-.09-.15.14,0a1,1,0,0,0,.89-.27,2.67,2.67,0,0,1,.36-.22.38.38,0,0,1,.48.13.5.5,0,0,1-.16.6C294.7,214.11,294.64,214.07,294.62,214.06Zm-11.06,7,0,0,0,0a4.26,4.26,0,0,1,.7-.72l.08-.05,0,.09a3,3,0,0,0,1.53,1.93l.24.13-.28,0-.18,0A3.28,3.28,0,0,1,283.56,221Zm5.39,5.42c3-2.16,3-3.86,2.24-5.75l0,0,0,0c.11-.1.69,0,.71,0,.26.05.88.2,1.08.53a1.51,1.51,0,0,1,1.2.3.76.76,0,0,1,.57,0,1.31,1.31,0,0,1,.66.57,1.69,1.69,0,0,1,.87.5c.53.35,1.78,1.52,1.78,4.82,0,.6,0,1,0,1.39v0l0,0-.76.33-.09,0v-.09a9.77,9.77,0,0,0-.8-4.39,8.8,8.8,0,0,1,.1,4.72v0h0c-.44.16-.9.3-1.38.44l-.1,0,0-.11a10.35,10.35,0,0,0-.55-7,14.15,14.15,0,0,1-.79,7.38v0h0a21.15,21.15,0,0,1-2.55.33h-.11l.06-.09c1.54-2.79,2.22-4.2,2.24-6.08a14.83,14.83,0,0,0-.08-1.75c0,3.34-1.47,6.49-3.83,7.8a1.81,1.81,0,0,1-.76.15,6,6,0,0,1-.93-.1,6.94,6.94,0,0,0-.75-.09h-.37l.36-.11a7.29,7.29,0,0,0,5.37-7.8,7.73,7.73,0,0,1-2.19,4.66c-2.43,2.4-5.84,2.31-8.27,1.81h0a20,20,0,0,1-7.76-6.05l-.14-.18.05,0,0,0,.14.18C277.48,227.1,286.66,228.07,289,226.44Zm4.26,24.42h-6.68l-.09.13,3.43,0,3.43,0ZM324,233.23a.15.15,0,0,0,.11.06h.08a.69.69,0,0,1,.46.15,1.31,1.31,0,0,0,1.47,0,.86.86,0,0,1,.62-.15h.06a.15.15,0,0,0,.11-.06.22.22,0,0,0,0-.21l-.6-1.43V231a.36.36,0,0,0-.32-.39h-1.11a.36.36,0,0,0-.31.39v.59L324,233A.22.22,0,0,0,324,233.23Zm.87-2.27H326v1.57h-1.15Zm-79.61,25.27,1.42.28v-1.28l-1.42-.36Zm-1-.19.75.15V254.6l-.75-.19Zm10.26-3.59a1.2,1.2,0,0,1,.81.29v-.09h.47l-1.28-.89-1.28.89h.47v.09a1.24,1.24,0,0,1,.81-.29Zm-6.62,2.91,1.41.33h0l-1.41-.35Zm76,1.94-.17,0v1l.17,0Zm-76.84-.72.65.13v-1.44l-.65-.16Zm-1.8-1.89,1.42.36v0l-1.42-.35Zm5.16,1.26h0l.27.06Zm12.48-17.83.49.61c0-.21,0-.48,0-.76s0-.78,0-1l-.1-.24-.45.07,0,.12Zm-.78-3.27.48,1.08-.21-.1.17.35.2-.25-.64-1.27-.19.18.05.12Zm56.38,1.63.46-.56v-2.39l-.46,1.06Zm-70.84,15.28-1.28.89h.47v.09a1.24,1.24,0,0,1,.81-.29,1.2,1.2,0,0,1,.81.29v-.09h.47ZM262.17,237c0-.45,0-1.21,0-1.32h0l-.16-.41-.13,0v1.74l.3.41C262.16,237.36,262.17,237.22,262.17,237Zm-.93-2.43-.45-1.06v2.39l.45.56Zm56.34,1.13v1.74l.29-.41v-1.74l-.12,0Zm-45.21,27,.08-.06h0Zm-16.55-4.49.17,0v-1l-.17,0Zm16.59-.62-.07.06.08-.06Zm-16.22.69.8.15v-.77l-.8-.19Zm16.22-.21h0l-.07-.18-.26.05Zm-1.17-.51-.09-.24-.33.06Zm-19.37-.12.53.1v-1.17l-.53-.13Zm.74.14,1.06.21v-.94l-1.06-.25Zm3.31-3.66h-.33v-.15a1,1,0,0,0-.53-1,1,1,0,0,0-.43-.11,1,1,0,0,1,.89,1.1v0l0,0s0,0-1.3,0h-.52l-.05.21h.87v2.33h-.9l.25.06h.65v.16h.06v-.17h.94V257l.24.06.17,0Zm-.41,2.52h-.94v-2.33h.94Zm-5.09.72,1.16.23v-1l-1.16-.28Zm-.71-.14.52.1V255.9l-.52-.13Zm4.24.83.38.07v-1.06l-.38-.1Zm.58.11,1,.19v-.84l-1-.24Zm-6.6-1.28,1.41.27v-1.15l-1.41-.33ZM274,250.86l10.3.11-.07-.11Zm34.16-7.41s.07,0,.13,0a.4.4,0,0,1,.25.09.72.72,0,0,0,.81,0,.46.46,0,0,1,.36-.08h0s0,0,0,0a.09.09,0,0,0,0-.1l-.34-.82v-.33a.17.17,0,0,0-.16-.19,2.8,2.8,0,0,1-.29,0h-.18a.43.43,0,0,0-.27.06.2.2,0,0,0-.05.14v.35l-.34.8A.27.27,0,0,0,308.17,243.45Zm.46-1.31h.71v1h-.71Zm3.47-.75-.43.31h.87Zm-17.7,6.84a.49.49,0,0,0-.41,0,.26.26,0,0,0-.11.15h.63A.26.26,0,0,0,294.4,248.23Zm12.81-4.74,0,0,.28-.66Zm.09,1.3h0l6-.11h-.87c-1.94,0-4.86,0-5.13,0l-1.11,1.23Zm4.82,5.49H307.2l-1,.9h0a4.59,4.59,0,0,1-.77,0H295.28l-.1.17h0v.08h0l0,.07c0,.12-.14.7-.4.7s-.21-.16-.28-.3-.1-.22-.16-.22-.11.11-.16.21-.13.31-.29.31-.32-.54-.34-.71v-.06h0v-.08h0l-.1-.17h-7.13l-.11.17h0v.08h0v.06c0,.17-.1.71-.33.71s-.23-.16-.3-.31-.09-.21-.15-.21-.12.11-.17.22-.13.3-.28.3-.38-.58-.4-.7v-.07h0v-.08h0l-.11-.17h-10.9l-.76-.67-.26-.23h-4.92l2,1.44v-.07h1.17v.91l1,.75V251.4c0-.23.08-.38.2-.38s.25.24.25.65-.05,2.35-.05,2.37v.12l-.09-.07-.31-.23-.62-.47v.51l2.17,1.48h2.44l0-2.78h-1.44l-.11-.31h1.84l-.09.26v2.83h2.29l0-2.78h-1.44l-.1-.31h1.83l-.09.26v2.83h2.29l0-2.78h-1.44l-.11-.31H281l-.1.26v2.83h2.29l0-2.78H281.7l-.11-.31h1.84l-.1.26v2.83h1.31v-.16h1.44v.16H288l0-2.78h-1.44l-.1-.31h1.83l-.09.26v2.83h3.41v-2.83l-.1-.26h1.84l-.11.31h-1.44l0,2.78h1.93v-.16h1.44v.16h1.31v-2.83l-.1-.26h1.84l-.11.31H296.6l0,2.78h2.29v-2.83l-.09-.26h1.83l-.1.31h-1.44l0,2.78h2.3v-2.83l-.1-.26h1.84l-.11.31h-1.44l0,2.78h2.3v-2.83l-.1-.26h1.84l-.11.31H304l0,2.78h2.43l2.17-1.48v-.51l-.93.7-.09.07V254s-.05-1.9-.05-2.37.09-.65.24-.65.2.15.2.38v1.91l1.05-.75v-.91h1.17v.07Zm-42.08.06h.12a.66.66,0,0,1,.71.57V251h-.3l0,0a.64.64,0,0,0-.51-.46l-.43-.06Zm.66,1.2h-1.08l-.19-.53h1.46Zm2.49.94-.08,0s-.19.25-.19,1.69v.06h-.19v-1.84a1.17,1.17,0,0,1,0-.31c.05-.11.12-.13.15-.13s.27.22.27.47Zm.19-1.24a.25.25,0,0,0-.18.06.26.26,0,0,0-.08.21v.06h-.43v-.06a.4.4,0,0,1,.14-.34.65.65,0,0,1,.57,0Zm1.28,1.68h1v2h-1Zm2.46,0h1v2h-1Zm2.45,0h1v2h-1Zm2.45,0h1v2h-1Zm-7.81-.65.06-.1c.21-.31.5-.68.64-.63s.08.07.08.15c0,.38.35.34.35,0,0-.09,0-.15.08-.16h0c.14,0,.4.35.59.64l.06.1Zm2.45,0,.06-.1c.21-.31.5-.68.64-.63s.08.07.08.15c0,.38.35.34.35,0,0-.09,0-.15.08-.16h0c.15,0,.4.35.59.64l.06.1Zm2.45,0,.06-.1c.21-.31.5-.68.64-.63s.08.07.08.15c0,.38.35.34.35,0,0-.09,0-.15.09-.16h0c.15,0,.4.35.59.64l.06.1Zm2.45,0,.07-.1c.21-.31.49-.68.64-.63s.08.07.08.15c0,.38.35.34.35,0,0-.09,0-.15.08-.16h0c.15,0,.4.35.59.64l.06.1Zm4.27,2.69h-1v-.17h1Zm1-2h1v2h-1Zm6,2h-1v-2h1Zm-6.49-2.68.06-.1c.21-.31.5-.68.64-.63s.08.07.08.15c0,.38.35.34.35,0,0-.09,0-.15.08-.16h0c.15,0,.4.35.59.64l.06.1Zm3.47-.08h0l-1.47-.1V252h2.93v.12Zm1.59.08.06-.1c.19-.29.44-.64.59-.64h0c.05,0,.08.07.08.16,0,.33.35.37.35,0,0-.08,0-.14.08-.15s.43.32.64.63l.07.1Zm3.43,2.69h-1v-.17h1Zm2.83,0h-1v-2h1Zm-1.43-2.68.06-.1c.19-.29.44-.64.59-.64h0c.06,0,.09.07.09.16,0,.33.35.37.35,0,0-.08,0-.14.08-.15s.43.32.64.63l.06.1Zm3.89,2.68h-1v-2h1Zm2.45,0h-1v-2h1Zm2.45,0h-1v-2h1Zm-6.34-2.68.06-.1c.19-.29.44-.64.59-.64h0c.05,0,.08.07.08.16,0,.33.35.37.35,0,0-.08,0-.14.08-.15s.43.32.64.63l.06.1Zm2.46,0,.06-.1c.19-.29.44-.64.59-.64h0c.05,0,.08.07.08.16,0,.33.35.37.35,0,0-.08,0-.14.08-.15s.43.32.64.63l.07.1Zm2.45,0,.06-.1c.19-.29.44-.64.59-.64h0c.06,0,.08.07.08.16,0,.33.35.37.35,0,0-.08,0-.14.09-.15h0c.15,0,.42.35.61.64l.07.1Zm3.36,1.91h-.19v-.06c0-1.44-.15-1.66-.19-1.69l-.07,0v-.11c0-.25.12-.47.26-.47s.11,0,.15.13a.86.86,0,0,1,0,.31Zm0-2.61h-.43v-.06a.25.25,0,0,0-.07-.21.25.25,0,0,0-.18-.06l0-.12a.65.65,0,0,1,.57,0,.4.4,0,0,1,.13.34Zm2-1.06a.84.84,0,0,1,.65-.17l.37.07-.37.05a.64.64,0,0,0-.52.46v0h-.3v-.06A.49.49,0,0,1,309.06,250.51Zm0,1-.19-.53h1.46l-.19.53Zm-.49-9.84h.87l-.44-.31Zm1.15,0L309,241l-.75.75h.1l.68-.62.69.62Zm-36.65,8.58-.51-.49h-5.61l.14.1h5.54Zm20.5,6.86.08-.06.05,0h-7.62l0,0,.1.07Zm-20.12.2-.05,10.34h10.15v-1.11h.33v-8.85l-.09-.67H273.68A.29.29,0,0,0,273.43,257.34Zm2.21,9.47h-.07c-.18,0-.25.08-.34.24s-.2.34-.45.34h0a.5.5,0,0,1-.44-.34c-.1-.16-.16-.27-.35-.24h-.07v-.22h1.76ZM274,264.12v-.21h1.47v.21h-.23v2.31h-1v-2.31Zm1.81-.78-.11,0h-.14c-.4,0-.45,0-.47,0l0,0,0-.06h.13l-.51-.22-.5.22c.09,0,.13,0,.15.05v0l0,.06h-.85l1.24-.63,0,0,.48.24c.21.12.44.23.48.25s0,0,0,.05v0h0ZM274,259v-.21h1.47V259h-.23v2.31h-1V259Zm1.61,2.47v.22h-.11c-.15,0-.21.1-.3.26s-.2.33-.45.33h0a.51.51,0,0,1-.44-.33c-.1-.17-.17-.28-.35-.25h-.07v-.22Zm2.5,5.32h-.07c-.18,0-.25.08-.35.24a.51.51,0,0,1-.45.34h0c-.25,0-.35-.19-.44-.34s-.16-.27-.34-.24h-.07v-.22h1.76Zm-1.62-2.69v-.21H278v.21h-.23v2.31h-1v-2.31Zm4.11,2.69h-.07c-.18,0-.25.08-.34.24s-.2.34-.45.34h0a.5.5,0,0,1-.44-.34c-.1-.16-.17-.26-.35-.24h-.07v-.22h1.76ZM279,264.12v-.21h1.48v.21h-.24v2.31h-1v-2.31Zm4.11,2.69h-.06c-.18,0-.25.08-.35.24s-.19.34-.45.34h0c-.25,0-.35-.19-.44-.34s-.16-.27-.35-.24h-.06v-.22h1.75Zm-1.61-2.69v-.21H283v.21h-.23v2.31h-1v-2.31Zm.74-6.55h0l.58.3.4.21s0,0,0,0v0h0v.06l-.1,0h-.14c-.4,0-.44,0-.47,0l0,0,0-.06h.14l-.51-.22-.51.22c.1,0,.13,0,.15.05l0,0,0,.06H281Zm-.74,1.45v-.21H283V259h-.23v2.31h-1V259Zm1.61,2.47v.22H283c-.15,0-.21.1-.3.26s-.19.33-.45.33h0c-.25,0-.35-.19-.44-.33s-.16-.27-.35-.25h-.06v-.22Zm-.87,1.18h0l.62.32.36.19s0,0,0,0v0h0v.07l-.1,0h-.14c-.4,0-.45,0-.47,0l0,0,0-.06h.14l-.51-.22-.51.22c.1,0,.13,0,.15.05l0,0,0,.06H281Zm-2.5-5.1h0l.56.29.41.22s0,0,0,0v0h0v.06l-.1,0h-.14c-.4,0-.45,0-.47,0l0,0,0-.06h.13l-.51-.22-.5.22c.09,0,.13,0,.15.05v0l0,.06h-.85ZM279,259v-.21h1.48V259h-.24v2.31h-1V259Zm1.62,2.47v.22h-.12c-.14,0-.21.1-.29.26s-.2.33-.45.33h0a.51.51,0,0,1-.44-.33c-.1-.17-.17-.28-.35-.25h-.07v-.22Zm-.87,1.18h0l.61.32a3.7,3.7,0,0,0,.36.18s0,0,0,.05v0h0v.07l-.1,0h-.14c-.41,0-.45,0-.47,0l0,0,0-.06h.13l-.51-.22-.5.22c.09,0,.13,0,.15.05v0l0,.06h-.85Zm-2.5-5.1h0l.58.3.4.21s0,0,0,0v0h0v.06l-.1,0h-.14c-.4,0-.44,0-.47,0l0,0,.05-.06h.13l-.51-.22-.51.22c.1,0,.13,0,.15.05l0,0,0,.06H276Zm-.74,1.45v-.21H278V259h-.23v2.31h-1V259Zm1.62,2.47v.22H278c-.15,0-.21.1-.3.26a.51.51,0,0,1-.45.33h0c-.25,0-.35-.19-.44-.33s-.16-.28-.34-.25h-.07v-.22Zm-.88,1.18h0l.62.32.36.19s0,0,0,0v0h0l0,.07-.11,0h-.14c-.4,0-.44,0-.47,0l0,0,.05-.06h.13l-.51-.22-.51.22c.1,0,.13,0,.15.05l0,0,0,.06H276Zm-2.47-5.1.59.31.38.2s0,0,0,0v0h0v.06l-.1,0h-.14c-.4,0-.45,0-.47,0l0,0,0-.06h.13l-.51-.22-.5.22c.09,0,.13,0,.15.05v0l0,.06h-.85l1.23-.62Zm20.69,10.11v-1.11h.21v-8.86l.09-.66h-1.11v.3h.79l0,.08c-.05.14-.15.3-.27.32a.22.22,0,0,1-.2-.11h0c-.08,0-.14.28-.14.41v6h.66v.21h.23v.32h-2.21v-.35h.37V264h.44v-6a.62.62,0,0,0-.14-.4.09.09,0,0,0-.09,0,.2.2,0,0,1-.2.07c-.11,0-.19-.18-.23-.3l0-.08h.75v-.3h0v.12h-.51l-.16.12h0c-.09,0-.51,0-2.56,0h-1.12v.09l-.07-.07-.05,0v-.06H287a6.41,6.41,0,0,1-.91,0h0l-.16-.12h-.51v-.12h0v.3h.76l-.1.23a.27.27,0,0,1-.18.15.24.24,0,0,1-.19-.08.08.08,0,0,0-.08,0c-.09.05-.15.27-.15.4v6h.45v.23h.37v.35h-2.21v-.32h.22v-.21H285v-6c0-.12-.07-.38-.15-.42l0,0a.21.21,0,0,1-.19.09.22.22,0,0,1-.19-.13l-.13-.26h.81v-.3H284l.08.65v8.87h.21v1.11h2.23V264a.84.84,0,0,1,.87-.85h0a.83.83,0,0,1,.87.85v3.16l-.16.17v.35h1.09v-.34l-.18-.17V264a.87.87,0,0,1,1.74,0v3.16l-.16.17v.35h1.09v-.34l-.18-.18V264a.83.83,0,0,1,.87-.85h0a.84.84,0,0,1,.87.85v3.68Zm-6.75-5.27h-.13l0-2.08c-.06-.92-.61-1.52-1.1-1.52h0c-.45,0-.9.59-.83,2.08,0,.93,0,1.31,0,1.46v0h0c0,.07,0,.07-.05.07h0s0,0,0-.07h0v0c0-.17,0-.58,0-1.62v-1.87a1.16,1.16,0,1,1,2.29,0Zm2.27-.76h-.18v.77h-.23v-1h.24v-1.85h0l-.27.75h0v1.29H289.2v-1.29h0l-.27-.75h0v1.85h.25v1h-.24v-.77h-.18v-2.79a1.44,1.44,0,0,1,.42-1,1,1,0,0,1,.72-.32h0a1.28,1.28,0,0,1,1.11,1.36Zm2.16.74h0v0c0-.15,0-.53,0-1.45.08-1.5-.38-2.06-.83-2.09s-1.08.58-1.14,1.52l0,2.08H291v-3.55a1.16,1.16,0,1,1,2.29,0c0,.13,0,1,0,1.87,0,1,0,1.45,0,1.62v0h0c0,.07,0,.07-.06.07S293.17,262.46,293.16,262.39Zm31.39-32.2h1.79l-.89-.65ZM308.5,257.63l.43-.18-.34-.06Zm-1.2,5.08.08.06-.08-.07Zm0-5h0l.07.06Zm.33.34-.26-.05-.07.19Zm-1.3,9.68-.05-10.34a.28.28,0,0,0-.25-.29H296l-.09.67v8.85h.32v1.11Zm-8-.87h-.07c-.18,0-.25.08-.35.24a.5.5,0,0,1-.44.34h0c-.25,0-.36-.19-.45-.34s-.16-.27-.34-.24h-.07v-.22h1.76Zm-1.62-2.69v-.21h1.48v.21H298v2.31h-1v-2.31Zm4.11,2.69h-.07c-.18,0-.24.08-.34.24s-.19.34-.45.34h0a.5.5,0,0,1-.44-.34c-.1-.16-.17-.27-.35-.24h-.07v-.22h1.76Zm-1.61-2.69v-.21h1.47v.21h-.23v2.31h-1v-2.31Zm1.77-.85,0,0h-.41c-.2,0-.23,0-.24-.06l0,0,.05-.05h.12l-.51-.22-.51.22h.17v.14h-.88l1.19-.61s.05,0,.76.35c.12.06.24.13.28.14l0,0,0,0v0l.05,0ZM299.26,259v-.21h1.47V259h-.23v2.31h-1V259Zm1.61,2.47v.22h-.11c-.15,0-.21.1-.3.26s-.19.33-.45.33h0a.51.51,0,0,1-.44-.33c-.1-.17-.17-.28-.35-.25h-.07v-.22Zm2.5,5.32h-.07c-.18,0-.25.08-.35.24a.5.5,0,0,1-.44.34h-.05c-.25,0-.35-.19-.44-.34s-.16-.27-.34-.24h-.07v-.22h1.76Zm-1.62-2.69v-.21h1.47v.21H303v2.31h-1v-2.31Zm1.78-.85,0,0h-.66v-.14H303l-.51-.22-.51.22h.16v.14h-.87l1.19-.61s0,0,.75.35l.28.14h.29l-.22.09h0ZM301.75,259v-.21h1.47V259H303v2.31h-1V259Zm1.62,2.47v.22h-.12c-.14,0-.21.1-.3.26a.51.51,0,0,1-.44.33h0c-.26,0-.36-.19-.45-.33s-.16-.28-.34-.25h-.07v-.22Zm2.49,5.32h-.07c-.18,0-.25.08-.34.24s-.2.34-.45.34h0a.5.5,0,0,1-.44-.34c-.1-.16-.17-.26-.35-.24h-.07v-.22h1.76Zm-1.61-2.69v-.21h1.47v.21h-.23v2.31h-1v-2.31Zm1.82-.85h0l0,0h-.66v-.14h.15l-.51-.22-.51.22h.17v.14h-.88l1.19-.61s0,0,.76.35c.12.06.24.13.28.14h.28l-.21.09ZM304.25,259v-.21h1.47V259h-.23v2.31h-1V259Zm1.61,2.47v.22h-.11c-.15,0-.21.1-.3.26s-.2.33-.45.33h0a.51.51,0,0,1-.44-.33c-.1-.17-.17-.28-.35-.25h-.07v-.22Zm-.18-3.57.3.15h.3l-.23.09h0l0,0h-.66v-.14h.15l-.51-.22-.51.22h.17v.14h-.88l1.2-.61S305,257.56,305.68,257.92Zm-2.49,0,.29.15h.3l-.22.09h0l-.05,0h-.66v-.14H303l-.51-.22-.51.22h.16v.14h-.87l1.19-.61S302.5,257.57,303.19,257.92Zm-3.23-.34s0,0,.74.35l.29.14h.28l-.21.09h0l0,0h-.66v-.14h.15l-.51-.22-.51.22h.17v.14h-.88Zm-2.5,0s0,0,.74.34l.29.15,0,0,0,0v0l0,0h-.48c-.2,0-.23,0-.25-.06v0l0-.05H298l-.51-.22-.51.22h.17l0,.14h-.87Zm-.7,1.44v-.21h1.48V259H298v2.31h-1V259Zm1.62,2.47v.22h-.12c-.14,0-.21.1-.3.26a.51.51,0,0,1-.44.33h0c-.25,0-.36-.19-.45-.33s-.16-.27-.34-.25h-.07v-.22Zm-.92,1.19s0,0,.75.35l.28.14h.29l-.21.09h0l-.05,0h-.66v-.14H298l-.51-.22-.51.22h.17l0,.14h-.87Zm14.16-20.13-.33.8a.12.12,0,0,0,0,.1.06.06,0,0,0,0,0,.6.6,0,0,1,.37.11.62.62,0,0,0,.35.1.61.61,0,0,0,.36-.1.63.63,0,0,1,.28-.11c.13,0,.19,0,.22,0a.12.12,0,0,0,0-.1l-.35-.82v-.09c0-.13,0-.33-.06-.4a.14.14,0,0,0-.09,0h0a2.8,2.8,0,0,1-.29,0c-.18,0-.37,0-.45.05a.16.16,0,0,0-.05.14Zm.12-.41h.72v1h-.72Zm4.6-5.16a3.05,3.05,0,0,1,0,.37v.41h0v1l.49-.61v-1.23l0-.09-.45-.07Zm1.29-2.13.13.11.05-.12-.19-.18-.64,1.27.2.25.17-.35-.21.1Zm-31.54,16.34h-1.41l0,.09h1.37ZM329.44,233a.22.22,0,0,0,0,.22.28.28,0,0,0,.25.07h0a1.33,1.33,0,0,1,.48.18,1.16,1.16,0,0,0,1.27,0,1.33,1.33,0,0,1,.48-.18h0c.15,0,.31,0,.37-.07a.26.26,0,0,0,0-.22l-.6-1.42v-.16c0-.25,0-.58-.13-.72a.24.24,0,0,0-.19-.08h-1.11a.26.26,0,0,0-.19.08c-.14.14-.13.47-.13.71a1,1,0,0,1,0,.17v0Zm.88-2h1.15v1.57h-1.15Zm-6.79,26.58-.8.19v.77l.8-.15Zm3.27-27.35-1.41-1.43L324,230.19h.29l1.19-1.07,1.19,1.07Zm-6.43,39.46h.68l16.81,2.06V253.29l-1.33.31v-4.39h.18l1.38-1.65-.58-.75h-1v-9.49l1.64-1.1h-.12c-.15,0-8.44,0-13.39,0l-4.13,0-5,4.92,5-4.66h0l15.77,0,1.69-.28-1.59,1.06h0l-15.83,0-5.66,5v.45h-.07l-.42-.06-.94-.15h0l.75,1,.69.4v.69h0v5.78l5.69-3.32h3.1v-5.2l-.27-.32v-.3l-.19-.51h4l-.19.57h-3.06v5.76h6.52v-5.2l-.27-.32v-.3l-.18-.51h4l-.2.57h-3v5.76h6.78l.4.45-.09,0h-5.52c-4.85,0-11.46,0-11.8,0l-6.72,4.1,6.74-4.06h17.41l-1.18,1.44H320.52c-2,1.08-5.49,3-8.58,4.69l-5.22,2.86a.33.33,0,0,0-.14.3l.05,10.77.38,0,.12,0v-4.18l.66-.09v4.34l.4.05v-4.44h.05l1-.13V268l.39.05v-4.79l.93-.12v5l.39,0V263.1l.94-.12v5.35l.4,0v-5.44h.05l1-.13v5.7l.39,0v-5.79h.05l1.12-.14v6.08l.76.09V262.5h.06l1.06-.14v6.54l.39.05v-6.64h.05l1-.13v6.9l.39,0v-7h.05l1.16-.15v7.3l.72.08h.54v.18h-.23a12.9,12.9,0,0,1-1.55-.14l-.64-.08h0l-12.08-1.45H273.17l-4.45.53-9.48,1.13h-.55v-.19h.55l.71-.09V262l1.21.16v7l.38,0v-6.9l1.07.13V269l.38-.05v-6.54l1.12.14v6.27l.76-.09V262.6l1.17.15v5.79l.4,0v-5.7l1.05.13v5.44l.39,0V263l.94.12v5.11l.4,0v-5l.92.12v4.79l.4-.05v-4.69l1,.13v4.44l.39-.05V263.5l.66.09v4.18l.13,0,.37,0,.06-10.77a.36.36,0,0,0-.15-.3l-5.32-2.91c-3.05-1.68-6.5-3.57-8.48-4.64H243l-1.19-1.44h17.43l7,4.23c-2.67-1.64-5.39-3.29-7-4.29h-17.4l.42-.48H249v-5.76H246l-.2-.57h4l-.19.51v.3l-.27.32v5.2h6.53v-5.76h-3.06l-.2-.57h4l-.19.51v.3l-.27.32v5.2h3.12l5.67,3.31v-5.78h0v-.69l0,0,.67-.38.74-1-.61.1-.83.12v-.45l-5.66-5-15.84,0h0l-1.58-1.05,1.71.28,15.78,0,0,0,5,4.64-5-4.92-15.82-.06h-1.88l3.73-2.82,2.25-2.87-.13.1-.08-.09,1.56-1.41,1.19,1.07h.23l-1.4-1.41,0,0,5.28-7.34,4.33,12.92,1.55,2,6.32,6.25.42-.54-.06-.08.91-.82.69.62h.05l-.94-.82,0,0,2.2-4.05.2.48.06,0,1.88,3.08,3.08,6.38-.09.05h0l1.36.27,8.56,0c.4,0,.5.42.56.67a.59.59,0,0,0,0,.15.36.36,0,0,0,.46,0,.49.49,0,0,1,.33-.15h1.06l-.28,1.15a.63.63,0,0,1-.75.49h0l-.13-.45c-.05-.24-.27-.25-.58-.23h-.16v1h-.06l-10.54,0,.36-1.27-2.65-3h-7.19l-.11-.08v3.16l1.49,1h6.1l0,0,1.1,1h15a.52.52,0,0,1-.05-.23v-.06l.36,0h1.66l.36,0v.06a.52.52,0,0,1-.05.23h15l1.11-1.06h6.1l1.5-1v-3.16l-.11.08H307.4l-2.66,3,.36,1.27H305l-10.52,0v-1H294c-.19,0-.26.25-.33.52l0,.13v0h0a.63.63,0,0,1-.76-.49l-.28-1.15h1.06a.89.89,0,0,1,.33.14c.16.09.28.16.47,0,0,0,0-.09,0-.15.06-.25.15-.67.55-.67l8.58,0,1.34-.27h0l-.08-.05,3.07-6.38,1.88-3.08.06,0,.21-.48,2.22,4.1,0,0-.9.79h0l.69-.62.91.82L313,242l.43.54,0,0,6.29-6.22,1.54-1.94,4.34-12.92.07.1,5.23,7.28,0,0-1.37,1.37h.23l1.19-1.07,0,0,1.52,1.37-.07.09-.14-.1,2.25,2.87,3.71,2.81.18-.12-3.85-2.87-2-2.58.07-.2-1.67-1.86-5.53-7.73L322.15,225l-3.36,7.19h-.31l-.72,1.87h-.45l-.56,1.43H316l-.83,2.1h.7v.76l-.91,2v.27l-1.63,1.62-.25-.44-.73-1.05L310,236.35l-2.32,3.79-3.09,6.4-1.12.23h-8.61a2,2,0,0,0-.76-.14c-.24,0-.64.11-.73.82h-.63l0-.2h.49l.46-.63h-1.89a3.91,3.91,0,0,0-1.74-.75v0h-.48v0a4.19,4.19,0,0,0-1.7.75H286l.46.63h.49l0,.2h-.63c-.09-.71-.49-.82-.73-.82a2,2,0,0,0-.76.14H276.2l-1.17-.23-3.1-6.43-2.31-3.76-2.32,4.3-.77,1.09-.23.42-1.62-1.62v-.27l-.92-2v-.76h.7l-.82-2.1h-.75l-.55-1.43h-.46l-.72-1.87h-.3l-3.4-7.24-3.21-4.06-5.52,7.71L247,230.43l.07.2-2,2.53-3.89,2.92,1.87,1.24v9.49h-1l-.58.75,1.39,1.65h.18v4.39l-1.34-.31v18.43l16.79-2.06h.72L273.24,268l16.61.08,16.52-.09Zm4.81-23.27h-.95V244h.95Zm0-2.39h-.95v-2.34h.95Zm1,2.39h-.95V244h.95Zm0-2.39h-.95v-2.34h.95Zm5.79,2.39h-1V244h1Zm0-2.39h-1v-2.34h1Zm1,2.39h-1V244h1Zm0-2.39h-1v-2.34h1Zm-16.7.87.1-.08v3.52l-.49.32v.76l-.15.1v-.11c0-.62,0-1.15,0-1.66,0-.85,0-1.65-.05-2.68-.09-.31.1-.45.37-.65a3.52,3.52,0,0,0,.42-.33l.1-.09v.13a.69.69,0,0,1-.4.69l-.28.21v.16Zm-.64-.16,0-.16c.2-1.21.27-1.28.32-1.28h0c.07,0,.07.09.07.22a1.63,1.63,0,0,0,0,.35,1.8,1.8,0,0,0,.08-.56c0-.13,0-.24.08-.24s.13,0,.33.85v0Zm2.24-1.11v3.7l-.55.37v.8l-.16.11v-4.25l-.07-.2h0a2.07,2.07,0,0,0,0-.5v0l1.06-.86v.12a.77.77,0,0,1-.46.75c-.1.08-.22.16-.33.26V244Zm.23-.91-1,.77-.13.11,0-.16c.25-1.39.32-1.38.38-1.38s.08.09.08.23a1.07,1.07,0,0,0,0,.38,1.24,1.24,0,0,0,.1-.62c0-.16,0-.26.09-.27s.14,0,.38.88v0Zm1.38-.36v3.91l-.61.4v.85l0,0,0,0-.09,0V243.1l-.07-.2h0a2.44,2.44,0,0,0-.05-.53v0l0,0,1-.85.09-.07v.12c0,.44-.21.6-.5.8a2.9,2.9,0,0,0-.38.3v.19Zm.25-1-1.17,1,0-.16c.26-1.38.34-1.46.4-1.46h0c.07,0,.08.1.08.23a1,1,0,0,0,.06.42,1.35,1.35,0,0,0,.11-.68c0-.17,0-.27.1-.28s.15,0,.4.91v0Zm1.33,5.59h-.53l-.35.22-.08-.18.39-.23h.57Zm0-.61h-.53l-.35.23-.08-.18.39-.24h.57Zm0-.61h-.53l-.35.24-.08-.17.38-.26h.58Zm0-.6h-.53l-.35.24-.08-.17.38-.26h.58Zm0-.61h-.52l-.33.23-.09-.17.36-.25h.58Zm0-.6h-.52l-.35.24-.09-.16.38-.28h.58Zm0-.61h-.52l-.33.24-.09-.17.36-.26h.58Zm0-.61h-.52l-.33.25-.09-.17.36-.27h.58Zm0-.6h-.52l-.33.22-.09-.16.36-.26h.58Zm0-.61h-.52l-.35.26-.09-.17.38-.28h.58Zm0-.61h-.52l-.35.26-.09-.17.38-.28h.58Zm0-.6h-.52l-.32.29-.1-.16.35-.32h.59Zm0-.61h-.52l-.32.29-.1-.15.35-.33h.59Zm0-.61h-.52l-.32.3-.1-.16.35-.33h.59Zm0-.6h-.52l-.32.29-.1-.15.35-.33h.59Zm0-.61h-.52l-.32.29-.1-.15.35-.33h.59Zm2.12,2.81.05-.09c.23-.36,1-1.53,1.33-1.44.14,0,.14.24.14.3,0,.45.24.68.48.68s.48-.22.48-.69c0-.06,0-.25.13-.28h0c.35,0,1.11,1.09,1.34,1.44l.07.09Zm6.78,0,.06-.09c.23-.36,1-1.53,1.33-1.44.13,0,.13.24.13.3,0,.45.25.68.49.68s.48-.22.48-.69c0-.06,0-.25.13-.28h0c.35,0,1.11,1.09,1.34,1.44l.07.09Zm-8.9,27.69h-.55l-.38,0v-.19l.37,0h.55Zm-.93-3v-.19h.93v.19Zm.93.42v.19h-.93v-.19Zm-.06-1a7.18,7.18,0,0,0-.8,0h-.06v-.19h.05a7.77,7.77,0,0,1,.82,0h.06v.19Zm0-.61c-.18,0-.61,0-.8,0h-.06v-.2h.05c.2,0,.63,0,.82,0h.06v.19Zm0-.61a7.22,7.22,0,0,0-.8,0h-.06v-.19h.05a7.77,7.77,0,0,1,.82,0h.06v.2Zm0-.6a5.35,5.35,0,0,0-.8,0h-.06l0-.19h.06a5.67,5.67,0,0,1,.82,0h.06v.19Zm.06,4.85h-.55l-.38,0v-.19l.38,0h.55Zm0-.61h-.93v-.19h.93Zm3.12,1.95v.76l-1.69-.19v-.05c-.05-1.7-.05-3-.05-4.53v-1.74c0-1.35.38-2.47.88-2.54a.41.41,0,0,1,.31.1,3.52,3.52,0,0,1,.59,2.32s0,.51,0,1.11c0,3.74,0,4.57,0,4.76Zm2.62,1v.06l-2.15-.24v-.06a6.54,6.54,0,0,0-.06-1.19v-5.48c0-1.76.63-2.71,1.2-2.71h0c.47,0,1,.66,1.06,2.55C326.86,263.92,326.85,269.29,326.8,270.06Zm3.11.35v.06l-2.3-.26v0a7.55,7.55,0,0,0-.07-1.29v-5.95c0-1.9.67-2.93,1.28-2.93h0c.5,0,1.1.72,1.14,2.76C330,263.76,330,269.57,329.91,270.41Zm3.44.39v.06h-.06l-2.31-.27h-.06v-.06a7.94,7.94,0,0,0-.06-1.4v-6.46c0-2.06.7-3.17,1.34-3.17h0c.54,0,1.17.78,1.21,3C333.42,263.59,333.4,269.9,333.35,270.8Zm4.09.46v.07l-2.95-.34v-.05a8.26,8.26,0,0,0-.08-1.52v-7c0-1.8.69-3.37,1.54-3.49a.78.78,0,0,1,.65.21,4.37,4.37,0,0,1,.91,3.06C337.52,263.38,337.5,270.29,337.44,271.26Zm-16-12.51,1-.2v-1.14l1.07-.27v-4h.24v.53h.06a1.53,1.53,0,0,1,.26-.69h-1.4l2.45-1.73,0,0,2.41,1.71h-1.39a1.41,1.41,0,0,1,.25.69h.24v.3h-.51v-.15a1,1,0,0,0-1-1.08h0a1,1,0,0,0-1,1.08V254h-.33v3.09l.1,0v0H324l.25-.06v-.41h.94v.17h.06v-.16h.67l.23-.06h-.9v-2.33h.94v2.32l4.3-1.08v-2.26h.24v.53h.06A1.53,1.53,0,0,1,331,253h-1.4l2.45-1.73,0,0L334.5,253h-1.39a1.41,1.41,0,0,1,.25.69h.24v.3h-.51v-.15a1,1,0,0,0-.78-1.05,1,1,0,0,1,.37.23,1.22,1.22,0,0,1,.34.89V254h-1.93v-.06a1.28,1.28,0,0,1,.34-.89,1.2,1.2,0,0,1,.37-.23,1,1,0,0,0-.78,1.05V254h-.33v1.37l.41-.1v-1.08H332V255l.06,0v-.83H333v.6l4.66-1.17v.24h-.05l-1.76.44v0l1.84-.45v.18l-.05,0-1.79.43V256l1.84-.35v.34h-.05l-16,3.11v10.47h-.12c-.06,0-.06,0-.06-.22V259.06h0Zm3.37-4.78h-.57v-.06h-.07a1,1,0,0,1,1-1.14h0a1,1,0,0,1,1,1.11v.05s0,0-.53,0Zm.31.21v2.33h-.94v-2.33ZM321,266.51h-.87v-.19h.93v.19Zm-.49-14.14h.55v.19h-.53l-.36.18-.07-.18Zm-.34-.23-.07-.18.41-.2h.55V252h-.53Zm.89.84v.19h-.53l-.36.16-.07-.18.41-.17Zm-.55.6h.55v.19h-.53l-.36.19-.07-.18Zm0,.61h.55v.19h-.53l-.36.16-.07-.18Zm0,.6h.55v.2h-.54l-.36.14-.05-.18Zm.55.61v.19h-.54l-.36.12-.05-.18.4-.13Zm-.55.61h.55v.19h-.54l-.36.14-.05-.18Zm0,.6h.55v.19h-.54l-.36.14-.05-.19Zm0,.61h.55v.19h-.54l-.36.13-.05-.19Zm.55.61V258h-.54l-.37.1,0-.18.39-.11Zm-.55.6h.55v.19h-.54l-.36.12-.05-.19Zm.55.61v.19h-.55l-.36.08,0-.18.05,0a2.54,2.54,0,0,1,.77-.07Zm-.56.61h.56v.2h-.54l-.37.1,0-.19Zm0,.6h.57v.19h-.54l-.37.09,0-.19Zm0-9.7h.55v.19h-.53l-.36.18-.07-.18Zm-.41-.41.41-.2h.55v.19h-.53l-.36.19Zm.41-.8h.55v.19h-.53l-.36.19-.07-.18Zm0,1.82h.55v.19h-.53l-.36.19-.07-.17Zm-1.63.2h.59l.7.84h-.66l-.5-.47-.63,1.26-.11,0Zm-.3,7,1.2-.31v.27h-.06c-.11,0-.17.25-.22.47s-.13.53-.32.54h0l-.11,0a.74.74,0,0,1-.22-.48c0-.17-.07-.22-.09-.23s0,0-.07,0l-.08,0Zm0-5.37.47-1,.66.51-.55-.08-.16.41Zm1.18,4.77-1.15.31v-4.79l1.2-.52v5Zm-2.45-5.37h.49l.59.71h-.57l-.39-.38-.52,1-.11,0Zm.9,6.21a.11.11,0,0,1,0,.11.1.1,0,0,1-.08,0,.63.63,0,0,0-.11.32c0,.37-.18.62-.34.62h0c-.1,0-.23-.09-.29-.49,0-.17-.07-.21-.09-.22h-.05l-.08,0v-.26h0l.72-.19.31-.08v.14Zm-.68-5.39-.13.33-.38.19.4-.9.58.46Zm.68.25v4.72l-1.06.29v-4.55Zm-2.36-.35h.46l.54.67h-.53l-.35-.34-.47.91-.11,0Zm-.16,6,0,0,.71-.18.31-.08v.26h-.06c-.06,0-.12.07-.16.32s-.17.58-.34.59h0c-.08,0-.23-.07-.29-.47a.37.37,0,0,0-.08-.2h-.06l-.08,0Zm-.11-4.77.38-.83.55.43-.45-.07-.12.3Zm.11,4.52v-4.32l1.07-.46v4.49Zm-1.8-4.91h.49l.57.71h-.56l-.38-.37-.5,1-.11-.05Zm-.22,5.68h.05l1.09-.28.08,0v.24h-.06c-.07,0-.14.06-.2.3s-.2.56-.38.57h0c-.09,0-.24-.06-.32-.42a.27.27,0,0,0-.09-.18.13.13,0,0,0-.08,0l-.08,0Zm-.06-4.36.39-.88.58.45-.47-.07-.13.32Zm1.23,3.82-1.17.32v-4l1.22-.53v4.19Zm-2.39-4.36h.42l.52.62h-.51l-.32-.31-.43.85-.11-.05Zm.83,5.13s0,.07,0,.1a.15.15,0,0,1-.08,0,.45.45,0,0,0-.1.26c0,.31-.16.52-.31.52h0c-.08,0-.21-.05-.27-.41,0-.13-.06-.16-.07-.17s0,0,0,0l-.09,0V260l1-.26v.13Zm-.64-4.41-.1.27-.35.17.35-.79.53.42Zm.64.14v3.93l-1,.27V256Zm-2.18-.17h.42l.52.62h-.51l-.32-.31-.43.85-.11-.05Zm-.16,4.92h0l.59-.15.34-.09v.23h-.05c-.08,0-.13.19-.17.34s-.11.4-.26.41h0l-.07,0a.44.44,0,0,1-.16-.31c0-.09-.06-.2-.1-.22h0l-.08,0Zm-.1-3.76.35-.79.54.42-.44-.07-.11.27Zm.1,3.58v-3.55l1-.42v3.71Zm-3.67-2.75h.34l.41.5h-.38l.11.09.06,0v3l-.67.18v-2.91l-.09,0,.13-.29-.13.27-.11,0Zm.54,3.74v.22h-.06s-.07.21-.09.27-.07.33-.18.33h-.08c-.06,0-.09-.14-.11-.26s0-.18-.07-.19l-.08,0v-.22Zm-.21,1.81.17.13-.37-.06-.08.2-.3.15.13-.29-.13.26-.11-.05.32-.84h.34l.41.5Zm1.19-.18h0l.19.14-.4-.06-.1.24-.32.15.32-.72.26.2-.24-.23-.37.74-.11-.05.37-1h.39l.46.56Zm.39-1.87a.11.11,0,0,1,0,.09s0,0-.07,0-.09.17-.13.28-.11.37-.25.38h-.05c-.14,0-.19-.16-.23-.28s-.08-.2-.11-.19a.06.06,0,0,1-.08,0,.09.09,0,0,1,0-.09V261h.06l.58-.15.36-.1,0,.09A0,0,0,0,0,309.15,260.88Zm-.34-3.57.15.12.19-.08v3.27l-1,.26v-3.1h0l.31-.7.25.2-.24-.23-.37.74-.11,0,.38-1h.39l.46.56Zm1.35,5.24.19.15-.41-.07-.1.26-.33.16.33-.75.31.24-.29-.28-.4.78-.11-.05.4-1h.4l.48.59Zm-.62-2v-3.33l.78-.34-.43-.07-.11.28-.35.16.36-.78.53.41.19-.09v3.49Zm1-.1v.23h-.05s-.11,0-.14.24-.17.46-.32.47h0c-.08,0-.21-.05-.27-.36,0-.11-.05-.14-.06-.14h-.05l-.08,0v-.22Zm-.38-3.73-.33-.31-.43.84-.11,0,.43-1.11h.43l.51.63Zm1.13,5.71-.11.28-.34.17.35-.79.53.41Zm.24-.09-.32-.31-.43.84-.11-.05.43-1.1h.42l.52.62Zm1.15-.14-.12.29-.36.17.37-.82.55.43Zm.25-.1-.35-.33-.45.9-.11-.05.45-1.17h.45l.54.65Zm1.21-.13-.12.31-.37.18.39-.86.56.44Zm.28-.11-.37-.35-.49,1-.11-.05.48-1.24h.47l.56.68Zm1.51-.19-.14.36-.4.19.43-.95.61.48Zm.32-.12-.43-.41-.56,1.1-.11-.05.55-1.4h.53l.62.76Zm1.32-.21-.14.36-.39.19.42-.94.61.47Zm1.57-.18-.16.41-.43.2.47-1,.66.51Zm.37-.14-.49-.47-.64,1.26-.11,0,.21-.53h-.59l-.43-.41-.55,1.09-.11-.05.54-1.39h.52l.62.75.41-1.05h.59l.67.83v0h.05a3.34,3.34,0,0,1,.83-.05h.06v.19h-.55l-.37.06V261Zm1,.49h.56v.19h-.55l-.37.06,0-.19Zm0,.6h.56v.19h-.55l-.37.05,0-.19Zm.5,6.86h-.14c-.21,0-.52,0-.68,0h-.06l0-.19h.06a7.13,7.13,0,0,0,.8,0h.06v.19Zm-73.22-27.28h.94V244h-.94Zm0,2.39h.94v2.34h-.94Zm-1-2.39h.94V244h-.94Zm0,2.39h.94v2.34h-.94Zm7.79-2.39h.94V244h-.94Zm0,2.39h.94v2.34h-.94Zm-1-2.39h.94V244h-.94Zm0,2.39h.94v2.34h-.94Zm7.58-1.68a2.41,2.41,0,0,0,0,.53h0l-.08.2v4.48l-.09-.06,0,0,0,0v-.85l-.61-.4v-3.91l.61.48v-.19a3.1,3.1,0,0,0-.38-.3c-.29-.2-.51-.36-.49-.8v-.12l.09.07,1,.85,0,0Zm1.5,1.55a27.88,27.88,0,0,0-.07,2.89c0,.54,0,1.11,0,1.65v.06h-.08l0,0s-.06-.19-.06-.84l-.55-.37v-3.7l.57.45a1.53,1.53,0,0,1,0-.18,2.37,2.37,0,0,0-.34-.26.81.81,0,0,1-.46-.76v-.12l1.06.86Zm1.44.84a1.23,1.23,0,0,0,0,.27,1.51,1.51,0,0,1-.06.41c0,.62,0,1.15,0,1.66,0,.73,0,1.42,0,2.26h-.12v-.73l-.48-.32v-3.52l.1.08.37.29V245a2.55,2.55,0,0,0-.28-.21.7.7,0,0,1-.4-.69V244l.92.75Zm-.92-.87c.18-.79.26-.86.31-.86h0c.08,0,.09.11.09.24a1.62,1.62,0,0,0,.07.56,1.14,1.14,0,0,0,0-.35c0-.12,0-.21.08-.22s.12,0,.33,1.28l0,.16-1-.78Zm-1.54-1.26c.23-.9.33-.88.37-.88s.09.11.09.27a1.39,1.39,0,0,0,.1.62,1,1,0,0,0,.05-.38c0-.14,0-.22.08-.23s.13,0,.37,1.38l0,.16-.13-.11-.94-.77,0,0ZM260,241.27c.25-.92.36-.91.41-.91s.09.11.09.28a1.29,1.29,0,0,0,.12.68,1.08,1.08,0,0,0,.05-.42c0-.13,0-.22.08-.23s.14,0,.41,1.46l0,.16-1.2-1Zm-1.3-3.64h.58l.36.33-.11.15-.32-.29h-.51Zm0,.61h.58l.36.33-.11.15-.32-.29h-.51Zm0,.6h.58l.36.33-.11.16-.32-.3h-.51Zm0,.61h.58l.36.33-.11.15-.32-.29h-.51Zm0,.61h.58l.36.32-.11.16-.32-.29h-.51Zm0,.6h.57l.39.28-.09.17-.35-.26h-.52Zm0,.61h.57l.39.28-.09.17-.35-.26h-.52Zm0,.6h.57l.36.26-.08.16-.33-.22h-.52Zm0,.61h.57l.37.27-.1.17-.32-.25h-.52Zm0,.61h.57l.37.26-.1.17-.32-.24h-.52Zm0,.6h.57l0,0,.37.26-.09.16-.35-.24h-.52Zm0,.61h.57l.36.25-.08.17-.33-.23h-.52Zm0,.61h.57l.39.26-.09.17-.35-.24h-.52Zm0,.6h.57l.39.26-.09.17-.35-.24h-.52Zm0,.61h.57l.39.24-.09.18-.35-.23h-.52Zm0,.61h.58l.37.23-.08.18-.35-.22h-.52Zm-6.12-6.19c.23-.35,1-1.44,1.34-1.44h0c.14,0,.14.22.14.28,0,.47.24.69.47.69s.49-.23.49-.68c0-.06,0-.26.13-.3.33-.09,1.1,1.08,1.33,1.44l.06.09h-4.06Zm-6.79,0c.23-.35,1-1.44,1.34-1.44h0c.13,0,.13.22.13.28,0,.47.24.69.47.69s.49-.23.49-.68c0-.06,0-.26.14-.3.32-.09,1.09,1.08,1.32,1.44l.06.09h-4.06Zm22,6.15s-.05,0-.08,0v1.11h-.44v-1.12h0v1.12h-.44v-1.12h-.1v-.21h1.11v.08C267.84,246.64,267.84,246.67,267.81,246.69Zm3.19,0a.1.1,0,0,1-.08,0v1.11h-.45v-1.12h0v1.12H270v-1.12h-.1v-.21H271v.08C271,246.64,271,246.67,271,246.69Zm2.31.93-.07-.06a6.6,6.6,0,0,0-.11,1.68v0h0l-.05,0h0c-.08,0-.09-.17-.07-1,0-.3,0-.62,0-.87h0a1.24,1.24,0,0,1,0-.31c0-.1.08-.13.12-.13s.2.28.2.47Zm.74.56-.06-.06a5.6,5.6,0,0,0-.12,1.67v0l0,0-.05,0h0c-.07,0-.08-.17-.07-1,0-.31,0-.63,0-.87h0a2.28,2.28,0,0,1,0-.31c0-.11.08-.13.12-.13s.2.28.2.46Zm37.86-1.68H313v.08c0,.06,0,.09,0,.11s-.05,0-.07,0v1.11h-.45v-1.12h0v1.12H312v-1.12h-.1Zm-3.19,0h1.11v.08c0,.06,0,.09,0,.11a.08.08,0,0,1-.08,0v1.11h-.44v-1.12h0v1.12h-.44v-1.12h-.11Zm-2.28,1c0-.19.06-.47.19-.47s.09,0,.12.13a1.24,1.24,0,0,1,0,.31c0,.25,0,.56,0,.87,0,.79,0,.93-.06,1h0l0,0,0,0v0a6,6,0,0,0-.11-1.68l-.06.06Zm-.75.55c0-.18.07-.46.2-.46s.09,0,.12.13a1.24,1.24,0,0,1,0,.31c0,.24,0,.56,0,.87,0,.79,0,.92-.07,1h0l-.05,0,0,0v0a6.47,6.47,0,0,0-.11-1.67l-.07.06Zm10.41-9.56v-1.25l-.26.13.48-1.07.6.46.07-.16h-.16l-.51-.5-.66,1.32-.11,0,.64-1.65h.6l.1.11.6-1.55h.59l.36-.77-.3.61-.11-.05.63-1.66h.3l3.42-7.28,3.06-3.89-4.22,12.85L315,240.74Zm-22.38,8.93a.54.54,0,0,1,.19-.42.37.37,0,0,1,.32-.09l.35.06-.36.06a.37.37,0,0,0-.28.39v.06h-.22Zm-2-.51h1.69l-.2.26h-1.49Zm-1.91-.77h.12a2.63,2.63,0,0,1,1.29.42l-.07.1a3,3,0,0,0-2.56,0l-.07-.1A2.63,2.63,0,0,1,289.81,246.13Zm-3.28,1-.19-.26H288v.26Zm-1-.26a.38.38,0,0,1,.32.09.56.56,0,0,1,.18.42v.06h-.22v-.06a.37.37,0,0,0-.28-.39l-.36-.06Zm-28.16-21.79,3.43,7.29h.29l.64,1.66-.11.05-.31-.62.36.78h.6l.59,1.55.1-.11h.61l.64,1.65-.11,0-.67-1.32-.51.5h-.16l.08.16.59-.46.48,1.07-.26-.13v1.25l1.06,2.26-6.19-6.68-4.2-12.83ZM245.3,269.4a8.56,8.56,0,0,0-.09,1.54V271l-3,.34v-.07c-.07-1-.08-8-.07-9.08,0-2.4.81-3.25,1.45-3.25h0c.79,0,1.63,1.22,1.65,3.47Zm3.47.3v.89h-.05l-2.31.27h-.07v-.06c-.05-.95-.06-7.28-.05-8.31a4.17,4.17,0,0,1,.79-2.86.6.6,0,0,1,.49-.16c.71.1,1.27,1.51,1.27,3.2,0,.1,0,.78,0,1.65A51.73,51.73,0,0,1,248.77,269.7Zm3.39-.84a6.92,6.92,0,0,0-.06,1.3v0l-2.31.26v-.88c0-.19-.06-1.09,0-5.72v-1.12c0-2,.63-2.76,1.14-2.76h0c.61,0,1.27,1,1.28,2.93Zm2.94-.24a6.7,6.7,0,0,0-.06,1.2v.06l-2.15.24v-.82c0-.19-.06-1.06,0-5.32,0-.54,0-1,0-1,0-1.89.59-2.55,1.06-2.55h0c.57,0,1.18.95,1.19,2.71Zm2.1,1v.05l-1.69.19v-.07a10.68,10.68,0,0,0,0-1.15v-5.41c0-1.46.35-2.4.84-2.4h0c.46,0,.93.87.93,2.52v1.74C257.26,266.57,257.26,267.88,257.2,269.58Zm1.05-10.71a.4.4,0,0,1,0,.16v10.46l-.05.05,0,0c-.08,0-.13-.43-.09-8,0-1.19,0-2.23,0-2.45L242,255.94v-.34l1.83.35v-1.43l-1.83-.45v-.18l1.83.45v0l-1.81-.45v-.24l.08,0,2.14.54,1.16.29,1.28.32v-.6h.94V255l.06,0v-.85h.94v1.08l.41.1V254h-.34v-.06a1.12,1.12,0,0,0-.31-.86,1,1,0,0,0-.72-.32h0a1,1,0,0,0-.73.32,1.15,1.15,0,0,0-.3.86V254h-.51v-.3h.24a1.41,1.41,0,0,1,.25-.69h-1.39l2.44-1.73,0,0,2.41,1.71h-1.4a1.53,1.53,0,0,1,.26.69H249v-.53h.24v2.26l4.3,1.07v-2.31h0v-.27a1,1,0,0,1,.77-1.12.84.84,0,0,0-.37.14,1,1,0,0,0-.47,1V254H253v-.3h.24a1.41,1.41,0,0,1,.25-.69h-1.39l2.44-1.73,0,0L257,253h-1.4a1.53,1.53,0,0,1,.26.69h.06v-.53h.24v4l1.07.27v1.14l1.12.22-.1.06Zm-11.55-5a1,1,0,0,1,1-1.14h0a1,1,0,0,1,1,1.11v0l0,0s0,0-.53,0h-1.33v-.06Zm12.87,15a4.79,4.79,0,0,1-.68,0h-.2v-.19h.06a7,7,0,0,0,.79,0h.06l0,.19Zm-.82-1.37c.19,0,.61,0,.8,0h.06v.19h-.06c-.16,0-.46,0-.67,0h-.2v-.19Zm-.06-.42v-.19h.92v.19h-.92Zm.06,1a7.06,7.06,0,0,0,.79,0h.07v.19h-.06a6.59,6.59,0,0,1-.67,0h-.2v-.19Zm2.05-6.6-.17-.41-.54.08.66-.51.47,1Zm1.54.13-.14-.36-.49.08.6-.47.43.94ZM264,262l-.15-.36-.49.08.61-.48.42.95Zm1.76.25-.12-.31-.46.07.56-.44.39.86Zm1.46.21-.11-.29-.45.07.55-.43.37.82Zm.44.18-.46-.9-.35.33h-.52l.53-.65h.45l.46,1.17Zm-.18-6.64v3.77l-1-.27v-3.93Zm-.77-.5.53-.42.35.79-.34-.17-.11-.27Zm.77,4.47v.24l-.08,0a.08.08,0,0,0-.05,0s0,0-.07.17c-.06.36-.19.41-.26.41h0c-.15,0-.27-.21-.31-.52s-.08-.26-.14-.27h-.06v-.24Zm1.12,2.71-.11-.28-.43.07.53-.41.35.79Zm.41.16-.43-.84-.33.31h-.5l.51-.62h.43l.43,1.1Zm-.16-6.25v3.55l-1-.26v-3.71Zm-.79-.4.53-.42.35.79-.34-.17-.11-.27Zm.1,3.95.64.17h0v.23l-.08,0h-.05s0,0-.07.16c-.06.33-.19.38-.26.38h0c-.15,0-.28-.21-.31-.5s-.09-.24-.15-.25h-.05v-.23Zm1.75,2.76-.1-.26-.41.07.51-.4.34.75Zm1.75.33-.37-.74-.24.23.25-.2.33.72-.33-.15-.09-.24-.4.06.19-.15h-.46l.47-.56h.38l.38,1Zm-1-2.23v-.22l.29.07.64.17h0v.22l-.08,0h-.05s-.05.06-.06.12c-.06.29-.19.34-.26.34h0c-.15,0-.28-.19-.32-.46s-.09-.21-.14-.21Zm2.16,2.33-.14-.27.13.3-.3-.15-.08-.2-.37.06.17-.13h-.38l.41-.5h.34l.33.84Zm-.79-2v-.22l.66.17v.22l-.08,0a.53.53,0,0,0-.06.19c0,.12-.05.22-.12.26h-.08c-.11,0-.14-.16-.18-.33s-.05-.26-.09-.27Zm.2-4h.34l.32.85-.11,0-.13-.27.13.29-.09,0v2.91L272,261v-3l0,0,.12-.09h-.38Zm-1.22-.63h.38l.38,1-.11,0-.37-.74-.24.23.25-.2.32.7h0v3.1l-1-.26v-3.27l.18.08.16-.12h-.45Zm-1.33-.7h.43l.43,1.11-.11,0-.43-.84-.32.31h-.51Zm.59,1.13v3.33l-1-.27v-3.49l.19.09.53-.41.36.78-.35-.16-.11-.28-.42.07Zm0,3.49v.22l-.09,0h-.05s0,0-.06.14c-.06.31-.19.36-.26.36h0c-.15,0-.28-.2-.31-.48s-.1-.23-.15-.23h0v-.23Zm-.62,1.29h.4l.4,1-.11.05-.39-.78-.3.29h-.48Zm-.91-6.57.43,1.11-.11.05-.43-.85-.33.31h-.5l.51-.62Zm-1.78-.69h.43l.43,1.11-.11.05-.43-.85-.33.31h-.5Zm-1.5-.78h.48l.5,1.28-.11.05-.5-1-.39.37h-.56Zm-.51,5.13v-4.19l1.21.53v4Zm1.21.55v.25l-.08,0a.13.13,0,0,0-.08,0,.27.27,0,0,0-.09.18c-.07.36-.23.42-.32.42h0c-.19,0-.35-.25-.39-.57s-.13-.29-.2-.3h-.05v-.24l.07,0,1,.26Zm-.31-4.54-.12-.32-.47.07.57-.45.4.88Zm-.42,6.08h.47l.48,1.24-.11.05-.48-1-.38.35h-.54Zm-.86,1.06-.56-1.1-.43.41h-.6l.63-.76h.53l.54,1.4Zm-.43-7.69v4.32l-1.06-.29v-4.49Zm-.82-.6.56-.43.37.83-.36-.17-.12-.3Zm.07,5,.71.18,0,0v.25l-.08,0H264s-.06.05-.08.2c-.07.4-.21.47-.29.47h0c-.16,0-.3-.24-.34-.6s-.09-.3-.16-.31H263v-.26Zm.59-5.81.46,1.2-.11,0-.46-.91-.36.34h-.53l.55-.67Zm-1.45-.72.5,1.3-.11,0-.51-1-.4.38h-.57l.59-.71Zm-.91,5.79v-4.72l1.06.46v4.55Zm1.06.56V259l-.08,0h-.05s-.05.05-.08.22c-.06.4-.19.49-.29.49h0c-.16,0-.3-.25-.33-.62s-.1-.32-.17-.33h-.05v-.26l.31.08.71.19Zm-.24-5.2-.13-.33-.48.08.58-.46.4.9Zm-1.52-2.14.61,1.59-.11,0-.63-1.26-.49.47h-.66l.69-.84Zm-.9,6.34v-5l1.21.52V258Zm1.21.62v.27l-.09,0a0,0,0,0,0-.06,0s-.07.06-.1.23c-.07.44-.23.51-.32.51h0c-.18,0-.33-.28-.38-.66s-.11-.34-.19-.35H260V258Zm-.4-5.57-.16-.41-.54.08.66-.51.47,1Zm-2.08-3.41h.59l.36.19-.07.18-.36-.19h-.52Zm0,.6h.59l.36.19-.07.18-.36-.19h-.52Zm0,.61h.58l.37.18-.07.18-.36-.18h-.52Zm0,.61h.59l.36.2-.07.17-.36-.19h-.52Zm0,.6h.59l.36.19-.07.18-.36-.19h-.52Zm0,.61h.58l.37.18-.07.18-.36-.18h-.52Zm0,.61h.58l.37.17-.06.18-.36-.16h-.53Zm0,.6h.59l.36.19-.07.18-.36-.19h-.52Zm0,.61h.58l.37.16-.06.18-.36-.16h-.53Zm0,.6h.58l.37.15-.06.18-.36-.14h-.53Zm0,.61h.57l.37.13,0,.18-.37-.12h-.53Zm0,.61h.58l.37.15-.06.18-.36-.14h-.53Zm0,.6h.58l.36.13-.05.19-.36-.14h-.53Zm0,.61h.57l.37.13,0,.19-.37-.13h-.53Zm0,.61h.56l.38.11,0,.18-.37-.1h-.53Zm0,.6h.57l.37.11,0,.19-.37-.12h-.53Zm0,.61h.55l.39.08,0,.2-.07,0a2,2,0,0,0-.73-.07h-.11Zm0,.6h.56l.38.1,0,.19-.06,0a1.68,1.68,0,0,0-.64-.09h-.2Zm0,.61h.55l.39.09,0,.19-.06,0a2.38,2.38,0,0,0-.69-.07h-.15Zm0,.61h.05a4.8,4.8,0,0,1,.83.05h.05v0l.68-.83h.59l.4,1.05.62-.75h.52l.54,1.39-.11.05-.55-1.09-.43.41h-.59l.21.53-.11,0-.64-1.26-.49.47h-.64l0,.13-.38-.06h-.53Zm0,.61h.05a4.74,4.74,0,0,1,.83.05h.05l0,.19-.38-.06h-.53Zm0,.6h.05a5.84,5.84,0,0,1,.83,0h.05l0,.19-.37-.05h-.54Zm0,.61h.05a5.81,5.81,0,0,1,.83,0h.05v.19l-.38,0h-.54Zm0,.6h.55l.38,0v.19l-.38,0h-.54Zm0,.61h.55l.38,0v.19l-.38,0h-.54Zm0,.6h.55l.38,0v.19l-.38,0h-.54Zm0,.61h.92v.19h-.92Zm0,.61h.92v.19h-.92Zm0,.6h.92v.19h-.93Zm72.21-36.77-.89.65h1.79Zm-35.85,57.25a2.43,2.43,0,0,0-2.51-2.51,2.73,2.73,0,0,0-1.28.26l.1-1.88h3.36v-1.24h-4.55l-.17,3.72,1,.7a2,2,0,0,1,1.17-.35,1.33,1.33,0,0,1,1.5,1.3,1.31,1.31,0,0,1-1.42,1.3,4.85,4.85,0,0,1-2.32-.66v1.35a5.49,5.49,0,0,0,2.36.56A2.59,2.59,0,0,0,295.05,286.79Zm-14.36,2.39v-7.76h-1.22l-2,1v1.34l1.85-.93v6.33Zm1.95-2.2c0,1.39,1,2.36,2.81,2.36s2.76-1,2.76-2.21a2.09,2.09,0,0,0-1.37-1.93,2.12,2.12,0,0,0,1.1-1.77,2.24,2.24,0,0,0-2.54-2.18c-1.54,0-2.49.87-2.49,2.13a1.86,1.86,0,0,0,.94,1.67A2.19,2.19,0,0,0,282.64,287Zm2.76-4.59c.87,0,1.29.5,1.29,1.1a1.48,1.48,0,0,1-1,1.23l-.74-.3a1.16,1.16,0,0,1-.82-1C284.16,282.87,284.58,282.39,285.4,282.39Zm-.4,3.21.86.35c.75.31,1,.69,1,1.13s-.5,1.08-1.42,1.08-1.49-.47-1.49-1.26A1.42,1.42,0,0,1,285,285.6Zm13.67,2.5a4.58,4.58,0,0,1-1.88-.47V289a5.17,5.17,0,0,0,1.88.39c2.07,0,3.25-1.09,3.25-4.32,0-2.37-1.06-3.77-2.88-3.77a2.56,2.56,0,0,0-2.71,2.56,2.39,2.39,0,0,0,2.46,2.56,2.59,2.59,0,0,0,1.78-.63C300.57,287.4,300,288.1,298.67,288.1Zm.36-2.89a1.38,1.38,0,0,1,0-2.76c1,0,1.49.74,1.49,2.09A2.07,2.07,0,0,1,299,285.21Zm-50.43,5a.64.64,0,0,0,.17-.46c.3-4.43-1.76-8.43-4.86-10-.37,2.8.26,8.05,4.21,10.5a.36.36,0,0,0,.44,0h-.05a15.23,15.23,0,0,0-2.64-6.57,14.07,14.07,0,0,1-1.13-2.06c.73,1.4,1.7,2.52,2.45,3.92A11.86,11.86,0,0,1,248.6,290.21Zm91.52-14.27c-.09.07-.18.17-.29.17s0-.43,0-.9c-.05-.87-.31-2-.92-1.85s-.82,1.15-1,1.7c-.1.29-.2.94-.43.57s-.6,0-.68.37-.09,1.69-.21,2.12c-.06.09-.14,0-.24-.05a.33.33,0,0,0-.43.06c-.39.3-.27,1.07-.22,1.25s.31.44.29.57-.48-.23-.64,0a1.15,1.15,0,0,0-.1,1c.07.28.44.59.41.72s-.13.07-.24.16-.17.56-.23.74a2.8,2.8,0,0,1-.3.48c-.07.09-.19.77.15.68a6.77,6.77,0,0,0,.84-1.13,15.41,15.41,0,0,0,2.28-5,17.68,17.68,0,0,1-2.86,6.23,6.49,6.49,0,0,0,2.39-1.88c0-.33-.31,0-.27-.23.48-.31,1.44-.49,1.9-1,.3-.23.75-1.15.18-1.22-.16,0-.35,0-.42-.09s1.54-1.8,1.57-2.5C340.71,276.59,340.54,275.63,340.12,275.94ZM339.34,220c0,.07-.28,0-.61,0-1.61,0-2,1.33-.52,2.08.24.13.56.27.29.49a.43.43,0,0,0,.12.76c.49.25,1.26.08,1.34.21s-.13.27-.16.41c-.08.42.49.55.76.42s.35-.35.43-.32-.27.59-.17.74.43.2.63.11.47-.49.55-.46,0,.14.05.27.32.17.42.23.2.28.25.32c.22.17.55,0,.44-.29-.31-.5-.72-1.05-1.08-1.55a6.08,6.08,0,0,0-2.18-1.59l.12,0a6.78,6.78,0,0,1,3,2.55l.28.39a1.91,1.91,0,0,0-.08-.82,5.25,5.25,0,0,0-.56-1.66c-.21,0-.06.32-.2.28a9.62,9.62,0,0,0-.24-2,.71.71,0,0,0-.43-.46c-.39-.1-.33.56-.49.7s-.11-.11-.23-.32c-.31-.6-1-1.91-1.75-1.17C339.17,219.6,339.39,219.8,339.34,220Zm9,33.15c-.2-.49-.59.19-.78.15a12.68,12.68,0,0,1,.25-1.71c.05-.6.15-1.65-.62-1.74-.24,0-.22.38-.39.53s-.19-.3-.42-.62c-.42-.58-1.1-1.21-1.58-.66s-.12,2-.05,2.43-.28.16-.54.46.11,1.37.36,1.75.54.65.1.77a.57.57,0,0,0-.34.38,1,1,0,0,0,.4,1c.12.08.46,0,.5.14s-.1.11-.23.18c-.57.22-.28.84.07,1,.19.12.64,0,.68.15s-.07.15-.12.29.12.5.16.67a2.93,2.93,0,0,1,0,.54c0,.16.23.61.44.32a19.33,19.33,0,0,0,.12-4.63,9.5,9.5,0,0,0-.36-1.94,15.67,15.67,0,0,1,.58,5.11c0,.46,0,.92-.06,1.35a8.79,8.79,0,0,0,1.07-3c-.12-.25-.25.24-.33.06s.32-.54.44-.74C348,254.8,348.54,253.92,348.29,253.17Zm-1.74-24.68c-.1.18-.16-.43-.29-.06a14.62,14.62,0,0,0,.28,3.06,43.55,43.55,0,0,0,.95-5.23,15.42,15.42,0,0,1-.26,2.63c-.16.87-.35,1.84-.51,2.67,0,.1,0,.26.18.28.37-.14.27-.49.41-.82.07-.13.31-.42.3-.59-.18-.63.18-.2.58-.26a.67.67,0,0,0,.49-.63c0-.33-.43-.59-.37-.69s.33.05.46,0a1,1,0,0,0,.48-1.21c-.05-.32-.35-.49-.43-.73s.13-.44.29-.86.11-1,.52-1.1a1.09,1.09,0,0,0,0-.25c0-.24-.19-.52-.38-.46s-.23-.11-.22-.52c0-1,.22-2.41-.37-3.32-.53-.63-1,.33-1.31,1.08-.16.41-.24.85-.29.8s-.2-.6-.41-.53a.81.81,0,0,0-.44.75c-.16.66.4,3.05.29,3.19s-.21-.16-.34-.27-.26-.16-.35.12a2.6,2.6,0,0,0,.11,1.53A4.24,4.24,0,0,1,346.55,228.49Zm3,6.7a5.41,5.41,0,0,1,.08,1.19c-.19,0-.49-.73-.71-.22-.39,1,.44,2.3.59,3.21-.1.15-.12-.36-.28-.14a19.41,19.41,0,0,0,.05,2.25,2.23,2.23,0,0,0,.13.94c.61-2,1-4.15,1.62-6.15-.56,2-.91,4.25-1.42,6.26,0,.11,0,.26.17.32.4-.09.3-.46.46-.77.08-.14.34-.39.34-.56-.16-.69.19-.18.61-.18a.6.6,0,0,0,.54-.58c0-.34-.45-.69-.39-.79s.36.11.49.08a.89.89,0,0,0,.57-1,1,1,0,0,0-.25-.6c-.39-.29-.09-.45.19-.88.51-.55.95-2.21.19-2.33-.14,0-.23-.12-.18-.49.12-.57.34-2.62-.15-3.23s-1.08.13-1.43.84c-.19.39-.31.81-.36.75s-.13-.62-.39-.61C349.15,232.81,349.55,234.41,349.56,235.19Zm1.57.8c.06-.15,0,0,0,.09Zm-2.78,7c-.18-.13-.14.33-.26.23a16.24,16.24,0,0,0,.3-2.29,1.05,1.05,0,0,0-.27-.71c-.34-.3-.46.46-.65.54-.24-.57-.23-1.92-.71-2.45a.51.51,0,0,0-.69-.15c-.23.13-.08.45-.19.64s-.26-.15-.56-.28c-1.29-.63-2.11.25-1.39,1.5a7.69,7.69,0,0,0,.5.83c.14.22.08.35-.07.4s-.51.4-.11.94,1,.63,1.2.9c0,.24-.35.34-.32.77s.55.57.68.57.42-.22.49-.16-.36.42-.32.68.37.37.58.36c.36,0,.8-.59.62,0,0,.15.27.33.35.44s.12.38.16.44.42.31.48,0a9.21,9.21,0,0,0-.62-2.09,10.84,10.84,0,0,0-1.58-2.94l-.1-.1.1.09a13.36,13.36,0,0,1,2.41,4.79A7.58,7.58,0,0,0,348.35,243Zm-2.88,19.06c-.22-.12-.31.28-.5.35s-.1-.38-.24-.79c-.25-.75-.73-1.64-1.31-1.32s-.54,1.3-.62,1.89c0,.3,0,.93-.31.69s-.6.06-.62.63c-.05.82.35,1.78.27,2s-.37-.16-.67.27a1.21,1.21,0,0,0,.08,1.2c.09.14.41.26.42.38s-.5,0-.64.22a1,1,0,0,0,.15.92c.25.36.89.34.38.7-.09.12,0,.56,0,.74a2.82,2.82,0,0,1-.18.54.76.76,0,0,0,.08.49c.17.17.26,0,.32-.08a18.26,18.26,0,0,0,1.55-6.56,7.52,7.52,0,0,1,0,1.16,22.1,22.1,0,0,1-1.33,5.5c.4-.13.77-.82,1.08-1.21s1.17-1.6.62-1.4c-.07,0-.14.09-.15,0,.4-.47,1.28-1,1.62-1.62a1.48,1.48,0,0,0,.25-.89c-.05-.58-.6-.06-.77-.19s.34-.75.44-1C345.65,263.9,346.31,262.65,345.47,262.09ZM345,228.83c-.07.18-.11.4-.19.46-.34-.39-.59-1.68-1.22-2.06a.54.54,0,0,0-.73.12c-.2.2,0,.45-.05.69,0,.08-.28,0-.63-.06-.61,0-1.45.11-1.55.9s.59,1.25,1.12,1.53c.12.08.15.16.08.25-.28.2-.45.69.48,1-.58.08-.69.68-.44.83a.36.36,0,0,0,.28.06c.3,0,1-.19,1.17-.07,0,.08-.19.24-.21.36-.06.29.08.68.4.72a.82.82,0,0,0,.4,0c.14,0,.38-.37.46-.33s-.28.56-.2.81.45.26.66.18.51-.52.59-.48,0,.16.05.31.34.24.44.32.19.34.24.39a.34.34,0,0,0,.35.09.3.3,0,0,0,.14-.25,10.26,10.26,0,0,0-1.56-2.63c-.27-.34-1.58-2-1.59-2s.93,1.09,1.05,1.23c.33.4.74.85,1,1.27s.9,1.24,1.23,1.83a2.54,2.54,0,0,0-.06-1,14.65,14.65,0,0,0-.43-1.82c-.06-.16-.08-.25-.2-.18s0,.33-.14.29a8.67,8.67,0,0,0-.08-1.44,5.18,5.18,0,0,0-.18-1.08C345.64,228.64,345.17,228.31,345,228.83Zm-2.85-13c-.15.11-.61-.39-.64.18-.06,1,1,1.78,1.42,2.51,0,.19-.2-.25-.27,0a14.61,14.61,0,0,0,1,2.78c0-2.09-.37-4.86-.39-6.62.07,1.8.46,3.61.5,5.41a8.64,8.64,0,0,0,.11,1.3s.07.14.19.07c.29-.25.13-.53.18-.89,0-.16.18-.51.13-.65s-.13-.18-.1-.28.4,0,.56-.17.53-.86,0-1.06,0-.21.21-.34a1.07,1.07,0,0,0,.25-.37,1.13,1.13,0,0,0-.48-1.34c-.11,0-.2,0-.23-.15a11.38,11.38,0,0,0,.24-2c-.07-.57-.27-1-.67-.9-.11.09-.23,0-.3-.33a12.55,12.55,0,0,0-.31-1.34c-.46-1.66-1.5-2.17-1.68.12,0,.44,0,.86-.07.84s-.32-.46-.49-.31c-.58.48.06,1.81.42,2.56C341.87,215.13,342.23,215.76,342.18,215.87Zm-19,79.15a1.61,1.61,0,0,0,.55-1.87c-.11-.28-.29,0-.46-.11a10,10,0,0,0,0-2.28c-.41-2-1.18-.34-1.56.56-.13.23-.22.17-.26,0-.58-1.42-1,1.78-1.14,2s-.16-.26-.35-.35a7.34,7.34,0,0,0-1.31.31,1.16,1.16,0,0,0-.51,1.38c.12.26.84.71,0,.54s-.94.72-.67,1.18c.08.2.59.43.61.62s-.15.1-.29.22-.14.62-.17.8c-.09.35-.31.48-.28.8.06.56.41.44.56,0a13.55,13.55,0,0,1,1.61-2.44l.42-.08a8.77,8.77,0,0,0,1.73-2.74c0,.07-.06.2-.1.29a9.77,9.77,0,0,1-1.63,2.67l-.38.08a13.26,13.26,0,0,0-1.57,2.63,6.48,6.48,0,0,0,1.26-.87c.24-.13.43-.34.69-.37s.78-.34.48-.54c-.06,0-.13,0-.1-.14.2-.1.71.12,1,.1a1.1,1.1,0,0,0,1.25-.68.45.45,0,0,0-.15-.54c-.13-.1-.29-.17-.33-.3S322.64,295.47,323.14,295Zm-93.27-54.87a11.38,11.38,0,0,1-.8-2.39c-.59-2.66,0-5.41,0-8.09.18,3.47-.61,7.15.89,10.43l0,0a.62.62,0,0,0,.41-.4c2-4.61,1-9.52-1.43-12.35-1.54,3-2.52,8.4.57,12.54A.46.46,0,0,0,229.87,240.15Zm.16,8.22a.38.38,0,0,0,.41,0,8.23,8.23,0,0,0,3.32-3.83,14.14,14.14,0,0,0,.62-6.78c-3.38,1.52-5.14,5.58-4.65,10.05a.71.71,0,0,0,.25.53,12.29,12.29,0,0,0,2.21-4c.53-1.52.76-3.25,1.41-4.72-.53,1.55-.72,3.26-1.23,4.83A9,9,0,0,1,230,248.37ZM247,205.63c3.16-.73,5.14-3.63,7.58-5.53-1.83,1.59-3.33,3.79-5.52,4.92-.35.38-2.79.73-1.69.95,4.81.29,7.94-4.66,8.86-7.08a7.81,7.81,0,0,0-5.48,1.46,13.51,13.51,0,0,0-3.69,4.74C246.89,205.24,246.93,205.85,247,205.63Zm-17.62,52.83a.43.43,0,0,0,.46.05,8.08,8.08,0,0,1-1.33-2.07c-1.19-2.52-1-5.51-1.58-8.19.88,3.38.68,7.34,3,10.17l0,.06a.87.87,0,0,0,.35-.58c1.14-5-.31-9.74-4-11.88C225.37,249,224.84,255.27,229.34,258.46Zm30.4,39.47c-.4-4.36-2.82-7.84-6.43-8.46.08,2.59,1.3,8,5.86,9.19a.38.38,0,0,0,.43-.15l0,0c-.75-3.15-3.23-5-5.13-7.45,2.1,2.22,4.59,4.18,5.21,7.38A.89.89,0,0,0,259.74,297.93Zm-9-5.16a10.2,10.2,0,0,0-6.38-.69,10.85,10.85,0,0,0,4.4,4.86,9.78,9.78,0,0,0,5.57.84c1.35-.36-1.51-.37-1.94-.7-2.41-.75-4.11-2.71-6.17-4,1.47.72,2.67,1.91,4.07,2.75a12.56,12.56,0,0,0,4.5,1.67.63.63,0,0,0,0-.58A10.46,10.46,0,0,0,250.75,292.77Zm-10.14-11.7a7.78,7.78,0,0,0-5.69-1.68s.79,3.92,3.26,6.06a7.61,7.61,0,0,0,4.93,1.71.5.5,0,0,0,.42-.23c-3.33-.6-5-3.9-7.06-6.2,2.27,2.1,3.89,5.28,7.12,6.07v.07a.89.89,0,0,0,0-.65A11.39,11.39,0,0,0,240.61,281.07Zm-5.2-6.61c-3.46-1.33-4.51-5.34-6.28-8.23,2,2.73,3.06,6.57,6.36,8.09l0,.07a1.06,1.06,0,0,0,.16-.73,13.64,13.64,0,0,0-2.28-6.37,7.65,7.65,0,0,0-5.6-2.84s.17,4.6,2.37,7.43a7.61,7.61,0,0,0,4.81,2.77A.52.52,0,0,0,235.41,274.46Zm-3.27-42c2.52-1.72,3.31-4.9,4.81-7.38-1.33,2.59-2.1,5.88-4.75,7.47a.35.35,0,0,0,.38.07,7.75,7.75,0,0,0,3.71-3,13.38,13.38,0,0,0,1.7-6.17,7.72,7.72,0,0,0-4.32,3.19A12.65,12.65,0,0,0,232,232a.74.74,0,0,0,.14.54ZM234,225c-1.17-3.19.46-6.55,1.11-9.68-.43,3.17-2,6.44-1,9.64l-.05,0a.82.82,0,0,0,.5-.37c2.69-3.82,3.11-8.37.76-11.41a14.68,14.68,0,0,0-2.83,6.47,8.42,8.42,0,0,0,1.13,5.11A.41.41,0,0,0,234,225Zm5.54,54.29a.59.59,0,0,0,.3-.39,13.64,13.64,0,0,0,.66-6,10.68,10.68,0,0,0-2.77-5.64c-1.26,2.87-1.91,8.16,1.31,11.87a.42.42,0,0,0,.44.17l0,0a14,14,0,0,0-.2-5c-.33-1.64-1-3.15-1.2-4.84.35,1.66,1,3.11,1.39,4.76A12.39,12.39,0,0,1,239.53,279.31Zm.89-67.67c.12-3.21,2.38-5.74,3.93-8.38-1,2.12-2.63,4-3.33,6.22-.29.7-.33,1.55-.55,2.18a.53.53,0,0,0,.48-.14,10.4,10.4,0,0,0,4.24-10.08A13.07,13.07,0,0,0,241,206.2a10.17,10.17,0,0,0-.82,5.1A.42.42,0,0,0,240.42,211.64Zm-7.5,53.6a.46.46,0,0,0,.38-.24,11.67,11.67,0,0,0,1.7-5.61,14.47,14.47,0,0,0-1.84-6.87A11.68,11.68,0,0,0,231,258.8a14,14,0,0,0,1.43,6.07.6.6,0,0,0,.42.37c.09-.75.48-1.64.53-2.49.41-2.64-.34-5.32-.28-8C233.36,258.24,234.39,261.93,232.92,265.24Zm99,20.76c-.17-.25-.36.13-.55.08s0-.45,0-1c-.24-3.29-1.46-2.43-2.08-.06-.1.29-.22.27-.3.08-.62-1-.69,1.18-.72,1.54s.05,1.17-.3.74-.68.21-.67.61a3.11,3.11,0,0,0,0,.64c0,.21.26.54.24.67s-.43-.38-.59-.2-.2.74-.15,1.06.36.75.33.88-.12.05-.23.11-.2.57-.27.74c-.23.41-.48.46-.42,1,.05.21.19.19.19.19a12.05,12.05,0,0,0,3.22-5.83c0,.08,0,.23-.07.34a13.53,13.53,0,0,1-2.9,5.69c0,.07.17,0,.27,0a6.19,6.19,0,0,0,2.13-1.43c.05-.35-.3-.06-.25-.3s.53-.11,1.09-.28a1.66,1.66,0,0,0,1.23-1.21c0-.33-.08-.43-.25-.48s-.35-.06-.41-.17c.12-.36.77-.85,1.06-1.3C332,287.53,332.39,286.71,331.9,286Zm-64.57,18.12a.54.54,0,0,0-.18-.52,11.78,11.78,0,0,0-5-3.06,11.41,11.41,0,0,0-6.57.42,12.15,12.15,0,0,0,5.62,3.68,11,11,0,0,0,5.79-.16c1.25-.54-1.67-.08-2.11-.31-2.6-.28-4.8-1.78-7.2-2.65,1.66.42,3.16,1.3,4.77,1.83A14.74,14.74,0,0,0,267.33,304.12Zm72.88-19a2.39,2.39,0,0,0-1.16,0c-.42.06-.76.24-.77.14-.06-.29.22-.63,0-.88-1-.85-1.82,1.25-2.25,1.87-.17.29-.29.47-.34.43s0-1.05-.52-.95c-1,.38-.93,2.15-1.4,2.89-.18,0,.12-.38-.16-.42,0,0-.1.05-.19.14a12.65,12.65,0,0,0-1.69,2.07,25,25,0,0,0,3.81-1.52,16.24,16.24,0,0,1,1.81-.82c-1.68.79-3.31,1.84-5.08,2.47-.19.09-.4.1-.52.26a.31.31,0,0,0,0,.32.5.5,0,0,0,.4.22c.07,0,.31-.14.46-.13s.52.18.63.07c.34-.69.31.26.59.64.41.55,1,.54,1-.28s.2,0,.4.24c.61.69,1.38.15,1.31-.68,0-.19,0-.33,0-.41s.37,0,.72,0a1.84,1.84,0,0,0,1.45-.35,1.17,1.17,0,0,0,.36-1.07c-.12-.31-.38-.45,0-.79a8.37,8.37,0,0,0,1-.86C340.8,287.09,341.31,285.42,340.21,285.08Zm6.19-11.53c-.38.13-.68.36-.72.26-.1-.29.1-.7-.17-.93a.57.57,0,0,0-.85.05c-.51.37-1.06,2.81-1.24,2.76-.25-.37-.3-1.48-1-.69s-.27,2.2-.52,3c-.18,0,0-.42-.23-.42s-.53.9-.7,1.2-.67,1.18-.62,1.46a39.63,39.63,0,0,0,3.76-2.57,9.1,9.1,0,0,1,1.12-.71,19,19,0,0,0-2,1.57c-.85.7-1.82,1.4-2.68,2-.07.13-.15.18,0,.44.43.37.52,0,.84-.07.15,0,.54.08.61-.05s0-.3.14-.3.36.65.58.85.63.46.84.17-.11-.92,0-1,.32.48.47.6.79.52,1.07-.12-.12-.89,0-1.21c.39-.19,1.27.07,1.79-.41a1,1,0,0,0,.19-1.47c-.24-.18-.1-.54.16-.78a6.59,6.59,0,0,0,.68-.93C348.84,274.7,348.35,272.78,346.4,273.55Zm5.74-26.83c-.29.3-.48.65-.53.57-.15-.25-.06-.72-.31-.8s-.53.09-.68.42c-.33.55-.33,3.18-.48,3.21s-.38-1-.72-.57a1.41,1.41,0,0,0-.26.85c-.07.79.29,1.88.27,2.6-.14.11-.06-.41-.27-.27a11.71,11.71,0,0,0-.35,1.87c-.08.41-.2,1.29-.09,1.34,1.11-1.78,2-3.79,3.16-5.51a33.51,33.51,0,0,0-1.79,3.41c-.37.76-.82,1.59-1.19,2.3,0,.15-.09.24.12.41.42.12.42-.28.65-.51s.44-.21.47-.38c-.06-.79.3,0,.69.16.22.07.6.1.69-.29.11-.23-.28-.81-.24-1s.36.29.5.32c.7.18,1.05-.73.67-1.39-.09-.15-.17-.24-.14-.37.28-.37,1.08-.61,1.34-1.24a1.06,1.06,0,0,0-.15-1.4c-.36-.15-.06-.68.08-1.08C354.23,248.1,354.23,244.6,352.14,246.72Zm-.74,14.49c-.36.17-.65.44-.68.34-.09-.31.12-.74-.12-.92a.52.52,0,0,0-.79.13c-.59.63-.84,2.27-1.27,2.91-.19-.17-.15-1.1-.59-.87-.89.65-.57,2.46-.85,3.32-.17,0,0-.42-.21-.39a13.41,13.41,0,0,0-1,1.93,2.35,2.35,0,0,0-.3.92c1.58-1.17,2.95-2.69,4.55-3.82-1.28,1-3,2.89-4.42,4.1,0,0-.17.18,0,.44.4.31.48-.08.78-.2.14,0,.5,0,.57-.13s0-.31.13-.32.33.6.53.78.58.37.77,0-.09-1,0-1,.29.44.43.54a.83.83,0,0,0,.44.15.55.55,0,0,0,.55-.41c.25-.68-.13-1,0-1.19s1,0,1.67-.61a1.08,1.08,0,0,0,.21-1.43c-.14-.13-.17-.34,0-.62a7.92,7.92,0,0,0,.79-1.15C353.51,262.38,353.42,260.17,351.4,261.21Zm-30,41a3.36,3.36,0,0,0-1.25-.42c-.47-.09-.9-.06-.88-.15,0-.26.49-.46.33-.76a.78.78,0,0,0-.9-.36c-.66,0-2.6,1.47-2.77,1.34s.39-.89-.17-1c-1-.2-1.85,1.35-2.55,1.79-.09,0,0-.11,0-.18s.09-.16,0-.23a2.13,2.13,0,0,0-.79.25l.15-.13c-.45.34-1.17.71-1.3,1.3,1.65-.67,3.31-.31,5.07-.35l.71.07a27.89,27.89,0,0,0-2.89,0,5.92,5.92,0,0,0-2.31.3c-.18.07-.39.11-.48.25s.42.4.56.36a1.45,1.45,0,0,1,.41-.12c.15,0,.55.13.63.07s0-.18.14-.15.14.13.24.27a1.58,1.58,0,0,0,1.14.69c.14,0-.12-.5,0-.5a2.81,2.81,0,0,0,1.16.91,3.12,3.12,0,0,0,1.77.64c.54,0,1.16-.42,1-.91-.08-.18,0-.36.37-.43,1-.17,2.48-.51,3-1.53A.79.79,0,0,0,321.36,302.17Zm-37.56,6.24a.64.64,0,0,0-.31-.53,12.26,12.26,0,0,0-6-2.2,11.9,11.9,0,0,0-6.86,2.13,12.7,12.7,0,0,0,6.8,2.75,11.5,11.5,0,0,0,6.09-1.64.62.62,0,0,0,.31-.43,10.87,10.87,0,0,1-2.62.61c-2.81.34-5.48-.81-8.22-1.18a15,15,0,0,1,2.75.38A16.35,16.35,0,0,0,283.8,308.41Zm-10.18-3.93a14,14,0,0,0-3.21-3.41c-1.21-.9-2.54-1.43-3.69-2.45,1.87,1.29,4,2,5.51,3.79.41.23,1.78,2.9,1.37,1.47-1.5-4.11-4.73-6.86-8.38-6.53a13.59,13.59,0,0,0,3.49,5.65,7.4,7.4,0,0,0,4.53,1.73A.39.39,0,0,0,273.62,304.48Zm11.52-1.63a7.12,7.12,0,0,0-4.87-.72,9.36,9.36,0,0,0,3.36,4.2,6.87,6.87,0,0,0,4.25.82.42.42,0,0,0,.35-.26l0,0c-1.57-2.23-4.24-2.75-6.51-3.94,2.37,1,5.09,1.52,6.56,3.86a.58.58,0,0,0-.05-.44A8.79,8.79,0,0,0,285.14,302.85Zm25.82-.67c0-.13.72-.22,1.4-.55a1.57,1.57,0,0,0,1.1-1.73c0-.17-.12-.19-.22-.19-.57.05-.15-.28,0-.92.66-2.17.16-3.61-1.67-1.24-.19.2-.28.11-.28-.11,0-.39-.28-.66-.7-.15s-.81,1.54-1.1,1.85c-.13.05-.11-.3-.32-.44a10.4,10.4,0,0,0-1.58,0,1.16,1.16,0,0,0-.93,1.25,1.27,1.27,0,0,0,.21.36c.28.37.11.38-.31.19a.92.92,0,0,0-.69,0,.86.86,0,0,0-.36,1.06c0,.22.57.58.55.78s-.2.06-.39.15-.31.58-.39.75-.39.41-.43.5-.17.64.12.68c.11,0,.16,0,.23-.08a15.12,15.12,0,0,1,2.44-2.1c.23-.21.38-.14.72-.13a9.23,9.23,0,0,0,2.66-2.31,9.52,9.52,0,0,1-2.71,2.54l-.47,0a14.69,14.69,0,0,0-2.43,2.23c-.05,0,.09,0,.13,0,.68-.16,1.49-.59,2.21-.76a1.77,1.77,0,0,0,.93-.16c.19-.28-.24-.21-.12-.41s.51.16.7.22c.65.24,1.58.43,2-.24C311.63,302.67,311,302.51,311,302.18Zm-4,5.24a4.28,4.28,0,0,0-1.4-.59c-.54-.14-1-.14-1-.24a1.11,1.11,0,0,1,.32-.4c.48-.51-.44-1-.9-.9-.75-.06-3.07,1.37-3.26,1.22s.49-.95-.14-1.11c-1.12-.31-2.19,1.31-3,1.74-.1-.06,0-.12,0-.2.27-.44-.42-.22-1-.06.42-.27-.16.07-.34.17-.35.25-1,.6-1,1,2-.56,3.81,0,5.82.12.3,0,.55.09.81.14a33.25,33.25,0,0,0-3.32-.24,6.82,6.82,0,0,0-3.16.25c.05,0-.25.12,0,.37.48.32.58.08,1,.07.17,0,.62.2.71.14s.06-.19.18-.15.41.61.62.75,1.13.81.91.13c0-.14-.08-.27,0-.24a3.5,3.5,0,0,0,1.27,1.12c.5.45,2.23,1.4,3.06.52.42-.49-.27-.88.59-1,1.1-.1,2.85-.31,3.49-1.41A.86.86,0,0,0,306.92,307.42ZM294,306.16c.6.15,1.65,1.12,2.33.33.31-.37-.19-.59-.24-.88,0-.12.63-.11,1.24-.3a1.86,1.86,0,0,0,.78-.47c.19-.16.47-1,.07-1.08s-.12-.26.07-.8c.67-1.71.39-3.15-1.35-1.29-.18.15-.26.06-.24-.13-.09-1.07-1,.25-1.24.67s-.32.55-.4.57-.08-.27-.25-.42l-.94-.18a1,1,0,0,0-1.28.93c0,.14.32.48.25.61s-.7-.42-1-.27a.71.71,0,0,0-.36.87c0,.2.45.58.42.75s-.17,0-.34.08-.3.46-.37.6c-.25.32-.6.4-.47.85s.51-.09.74-.24a12.59,12.59,0,0,1,2-1.28l.44.09a7.66,7.66,0,0,0,2.21-1.46,6.77,6.77,0,0,1-1.53,1.24c-.24.15-.49.28-.74.41l-.4-.08a10.54,10.54,0,0,0-2.22,1.64c.63,0,1.39-.33,2.06-.37.33.08,1.08.1.78-.23C294,306.27,294,306.23,294,306.16Zm-55.93-88.33c2.86-1,4.43-3.91,6.51-5.93-1.54,1.66-2.72,3.85-4.64,5.12-.29.39-2.56,1-1.49,1.07,4.52-.34,6.9-5.05,7.55-7.49a7.67,7.67,0,0,0-5,2,12.59,12.59,0,0,0-2.94,4.74.72.72,0,0,0,0,.56Zm92.61,78.54a3.17,3.17,0,0,0-1.14-.36c-.42-.07-.79,0-.78-.12,0-.26.36-.45.19-.72-.51-.7-1.22-.2-1.79.17-.92.58-1.47,1.4-1.27.34,0-.2,0-.37-.28-.42-.9-.15-1.44,1.33-2,1.76-.08,0,0-.1,0-.17s.06-.15-.07-.21-.94.45-.53.12c-.36.33-.94.74-1,1.26,1.18-.62,2.38-.38,3.66-.46a11.5,11.5,0,0,1,1.32,0c-.93,0-1.89.08-2.83.13a3.25,3.25,0,0,0-2,.57s0,.12.11.23a.71.71,0,0,0,.42.1c.07,0,.22-.13.35-.13s.49.11.55.05,0-.17.1-.14.73.93,1.32.86c.12,0-.17-.47-.09-.47a2.93,2.93,0,0,0,1.11.83c.42.32,1.86,1,2.36.15.24-.43-.34-.71.29-.89a4.37,4.37,0,0,0,1.94-.85A1,1,0,0,0,330.69,296.37Zm4.39-90.25c.15.21.08.33-.08.36-.34.11-.44.47-.11.85s1.08.72,1.31,1c0,.22-.38.23-.36.68s.57.65.72.67.45-.15.53-.09-.07.13-.17.24c-.47.4-.05.82.4.84s.88-.46.67.15c0,.14.27.36.36.48a3.74,3.74,0,0,1,.14.47c.07.19.43.4.52.09a8.75,8.75,0,0,0-.56-2.18,9.09,9.09,0,0,0-1.74-3.13c-.11-.11,0,0,.06.05a11.5,11.5,0,0,1,2.48,5.06,6.75,6.75,0,0,0,.12-3c-.2-.17-.17.3-.3.18s0-.19.07-.41c.2-.75.6-1.88,0-2.52-.36-.33-.49.38-.71.44-.21-.25-.36-3.1-1.63-2.61-.24.09-.07.39-.17.58s-.3-.16-.65-.31c-1.31-.63-2.39-.05-1.49,1.29C334.66,205.58,334.92,205.92,335.08,206.12Zm-2.2,6.23c0,.51.55.82.95,1,.23.1.54.21.31.43a.4.4,0,0,0,.16.7c.49.23,1.35-.13,1.27.2-.05.15-.18.28-.1.46a.54.54,0,0,0,.71.16c.12,0,.31-.35.38-.33s0,.14-.06.28c-.21.5.13.71.55.48.27-.15.52-.8.54-.23,0,.11.32.14.41.19s.21.24.25.27c.26.15.49,0,.4-.3a6.83,6.83,0,0,0-3.21-2.66l.35.09a7.29,7.29,0,0,1,3,2.4,6.12,6.12,0,0,0-.65-2.11c-.05-.09-.09-.14-.12-.14-.2,0,0,.3-.17.27-.19-.57,0-1.93-.8-2.19-.37-.06-.26.55-.4.69s-.32-.46-.45-.6c-.33-.5-1-1.28-1.5-.64-.16.19.06.35,0,.56,0,.06-.26,0-.56.05C333.61,211.46,332.88,211.7,332.88,212.35Zm-7.32-10.81c-.15.11-.52-.06-.51.18.09,1.16,2.32,1.33,3.07,1.79,0,.19-.64.22-.25.63a1.48,1.48,0,0,0,.73.41c.58.21,1.41,0,1.93.2.11.16-.3,0-.14.23a13.06,13.06,0,0,0,2.59,1.14c-1.6-1.56-3.46-2.82-5.1-4.32,1.36,1.22,2.94,2.16,4.29,3.4a11.55,11.55,0,0,0,1,.81.13.13,0,0,0,.16-.11c0-.4-.31-.47-.55-.76-.09-.13-.26-.49-.39-.55s-.2,0-.26-.11.2-.35.21-.56-.32-1-.76-.76-.15-.14-.12-.4a1.09,1.09,0,0,0-1.38-1c-.1.06-.14.14-.24.08s-.58-1-1.33-1.59c-.46-.33-.92-.49-1-.09,0,.15-.12.2-.42,0a7.85,7.85,0,0,0-2-1c-1.35-.31-1,.81-.09,1.73C325.29,201.25,325.61,201.51,325.56,201.54Zm-24.78,14.29s-.43-.35-.51-.33-.25.12-.23.57a4.91,4.91,0,0,0,.07.74S300.18,216,300.78,215.83Zm.67-11.43-.28,2.81c0,.11.18.09.18.08s.06,7.46.08,7.47l.36-.09s-.13-6.43.13-7a1.32,1.32,0,0,1,.84.73l-.05-1v-.13c.09,0,.27.08.25-.08l-.55-2.85a1.73,1.73,0,0,1,.48-.9,2.11,2.11,0,0,1,.76-.46,30.51,30.51,0,0,0-1.55-10.41l-.19-.41a17.43,17.43,0,0,0-.85,2.81,31.72,31.72,0,0,0-.86,8A1.81,1.81,0,0,1,301.45,204.4Zm0-9.33c.15-.65.3-1.21.44-1.67l.08,10.31c0,.77,0,1.91,0,2.7,0-.23,0,.48,0,.46s-.4.13-.42-.06l.17-2s0-1-.2-1.3a2.07,2.07,0,0,0-.93-.81A31,31,0,0,1,301.45,195.07Zm1.67,20.3a3.55,3.55,0,0,0-.75-.41,5.91,5.91,0,0,0-.73,0,1.31,1.31,0,0,1-.91-.16s-.06,0-.08,0,0,.32.11.44a1,1,0,0,0,.88.4c.41,0,.81-.2,1.13.05a8.64,8.64,0,0,1,.66.63,1.27,1.27,0,0,1,.12.49s.34-.2.13-1C303.58,215.66,303.31,215.51,303.12,215.37Zm-1.28,1.52a5.24,5.24,0,0,1,1.66.79c.08,0,.08-.35.07-.38s-.07-.3-.26-.33a1.7,1.7,0,0,1-.7-.47c-.12-.15-.28-.22-.3-.18s-.1.1-.48.09a1.4,1.4,0,0,0-.94.27.53.53,0,0,1-.3.17,1.18,1.18,0,0,0-.17,1A2,2,0,0,1,301.84,216.89Zm.9,3.54s.06,5,.06,5.19c.53-.47,1-1,1.52-1.48a20.21,20.21,0,0,0-.58-3.08c-.19-.41-.53-1.07-.72-1.37a1.25,1.25,0,0,0-.51-.44,1.6,1.6,0,0,1-1-.57c-.11-.08-.22.06-.56.1s-.28-.25-.28-.25.76-.5.92-.53a5.06,5.06,0,0,1,1.12.29s.24,0,.24,0a9.62,9.62,0,0,0-1.62-.8c-.09-.06-.54.4-.67.6a.19.19,0,0,1-.3.06s-.14.24,0,1.19a2.73,2.73,0,0,0,.51.93,1.29,1.29,0,0,0,.58.62c0,.42,0,1,0,1.44l0,3,.28-.78c0-.81,0-4.37,0-4.48A2.36,2.36,0,0,0,302.74,220.43Z" transform="translate(-225.65 -190.9)"/></svg>